<?xml version="1.0" encoding="UTF-8"?><svg id="Layer_1" xmlns="http://www.w3.org/2000/svg" xmlns:xlink="http://www.w3.org/1999/xlink" viewBox="0 0 86.71 77.22"><defs><style>.cls-1{fill:none;}.cls-2{fill:#f2840d;}.cls-3{fill:#8c8073;}.cls-4{clip-path:url(#clippath-1);}.cls-5{fill:#fff;}.cls-6{fill:#bbb;}.cls-7{clip-path:url(#clippath);}</style><clipPath id="clippath"><path class="cls-1" d="M48.34,37.26h38.37v39.96h-38.37v-39.96ZM63.62,58.68l-.28-.52-.42-2.11,4.56-3.87,1.34-.06,1.34.8-1.35-1.33-3.11-.64-3.14,2.03-.21,3.31.85,2.26.41.12Z"/></clipPath><clipPath id="clippath-1"><path class="cls-1" d="M71.53,62.95c.42.77,1.25-2.92.95-5.48-.67-5.68-6.67-7.31-8.77-5.07-1.79,1.86-1.39,4.71.03,6.42,1.4,1.71,3.55,1.74,4.92,2.06,1.37.31,2.39,1.15,2.89,2.06h-.01Z"/></clipPath></defs><g id="layer1"><g id="g1"><g class="cls-7"><path id="path378" d="M71.53,62.95c.42.77,1.25-2.92.94-5.48-.67-5.68-6.67-7.3-8.77-5.07-1.79,1.86-1.39,4.71.03,6.42,1.4,1.71,3.55,1.74,4.92,2.06,1.37.31,2.39,1.15,2.89,2.06h-.01Z"/></g><path id="path429-0" class="cls-3" d="M69.96,0h.23c.28.05.62.35.73.69.12.34,4.74,23.72-1.86,37.18-6.6,13.46-21.19,17.53-29.59,17.48-14.12.21-26.39-4.84-32.03-16.33,6.13-.21,8.16-6.14,8.26-11.08.03-1.52,2.42-18.11,2.97-18.84.15-.18.37-.09.48.08,2.3,3.59,4.41,5.44,7.51,7.14,4.92,2.13,8.13,2.91,15.39,1.62,7.26-1.29,19.23-5.6,27.07-17.38.3-.39.59-.53.84-.56h0Z"/><ellipse id="ellipse430-9" class="cls-5" cx="26.47" cy="28.06" rx="8.1" ry="9.07"/><ellipse id="ellipse431-4" cx="28.22" cy="28.4" rx="4.87" ry="5.92"/><circle id="circle431-6" class="cls-5" cx="28.24" cy="25.12" r="2.22"/><ellipse id="ellipse432-9" cx="6.98" cy="28.87" rx="6.89" ry="8.89" transform="translate(-5.59 1.96) rotate(-11.44)"/><circle id="circle432-2" class="cls-5" cx="6.15" cy="24.35" r="3.75"/><path id="path432-2" d="M52.57,40.79c-.49-.34.1-.88,1.17-.92.64-.03,1.45.14,2.31.62,2.29,1.31,2.37,2.92,1.62,3.27-.53.24-2.56-1.27-2.56-1.27,0,0-1.48-.97-2.53-1.7h0Z"/><path id="path433-4" d="M54.82,41.18c-4.52,6.27-11.43,10.06-22.7,8.46-1.47-.2-2.59,1.74,4.12,2.02,8.41.34,15.66-2.16,20.6-9.02l-2.02-1.46Z"/><path id="path434-77" class="cls-2" d="M53.85,45.99c-1.88-.78-4.45,1.88-3.47,2.59,1.49.96,6.7,4.29,7.8,4.87,1.27.68,3.1-.53,3.1-.53l.57-1.07s-.03-2.19-1.29-2.86c-.82-.44-4.26-1.94-6.68-2.99h-.03,0Z"/><path id="path435-5" class="cls-6" d="M59.73,53.37c.24.84,1.08.46,1.58.74.51.28.63,1.2,1.47.95.84-.24,1.94-2.22,1.7-3.07-.24-.84-1.08-.46-1.58-.74-.51-.28-.63-1.2-1.47-.95-.84.24-1.94,2.22-1.7,3.07Z"/><ellipse id="ellipse435-8" class="cls-5" cx="44.31" cy="28.08" rx="10.63" ry="10.85"/><ellipse id="ellipse436-1" cx="46.88" cy="28.48" rx="6.58" ry="7.21"/><circle id="circle436-2" class="cls-5" cx="46.88" cy="24.55" r="2.83"/><g class="cls-4"><path id="path379" class="cls-3" d="M67.66,52.55c.36-.59,2.32.21,2.75.51-.85-1.37-5.28-3.13-7.27-.95-1.98,2.18-.16,5.93.59,6.89-.22-.6-.65-2.3-.2-2.63.46-.33,1.51,1.53,2.38.99.87-.54-.82-2.02.03-2.72.88-.7,2.08,1.26,2.83.38.64-.78-1.43-1.94-1.11-2.47h0Z"/></g></g></g></svg>