<svg xmlns="http://www.w3.org/2000/svg" viewBox="0 0 265.5 81.51"><title>GitLab logo</title><polygon points="186.76 19.47 181.07 19.47 181.1 62.06 204.14 62.06 204.14 56.79 186.78 56.79 186.76 19.47" style="fill:#8c929d"/><path d="M599.42,500a18.79,18.79,0,0,0-12.11,4.38l2,3.51a17.35,17.35,0,0,1,9.26-2.73c4.67,0,6.73,2.41,6.73,6.45v2.07a25.81,25.81,0,0,0-3.94-.31c-10,0-15,3.51-15,10.85,0,6.58,4,9.88,10.1,9.88,4.1,0,8-1.89,9.39-5l1,4.17h4V511.52C610.87,504.63,607.9,500,599.42,500Zm5.9,25.82a9.69,9.69,0,0,1-7,3c-4.33,0-6.08-2.15-6.08-5,0-4.22,2.92-6.24,9.13-6.24a27.21,27.21,0,0,1,4,.31v7.89Z" transform="translate(-379.25 -471.24)" style="fill:#8c929d"/><path d="M631.65,500a10.4,10.4,0,0,0-7.83,3.49V498l0-7.29h-5.56l0,41.55A28.62,28.62,0,0,0,629,534.07c10.62,0,15.73-6.82,15.73-18.58C644.72,506.18,640,500,631.65,500Zm-2.4,29a13.21,13.21,0,0,1-5.43-.92V508.41a11.19,11.19,0,0,1,7.38-2.8c5.51,0,7.62,3.91,7.62,10.22C638.83,524.79,635.41,529,629.25,529Z" transform="translate(-379.25 -471.24)" style="fill:#8c929d"/><path d="M504.07,495.33a16,16,0,0,1,10.41,3.38l2.45-4.27a18.89,18.89,0,0,0-12.6-4.51c-12.11,0-20.59,7.42-20.59,22.38,0,15.67,9.16,21.78,19.62,21.78A33.22,33.22,0,0,0,516,531.64l-.13-16.75v-5.27H500.34v5.27h9.92l.13,12.71a15.42,15.42,0,0,1-6.6,1.18c-8.4,0-14-5.32-14-16.51C489.72,500.86,495.54,495.33,504.07,495.33Z" transform="translate(-379.25 -471.24)" style="fill:#8c929d"/><path d="M544.13,490.71h-5.56l0,7.16v24.72c0,6.89,3,11.51,11.46,11.51a18.2,18.2,0,0,0,3.42-.31v-5a16.2,16.2,0,0,1-2.58.18c-4.67,0-6.73-2.41-6.73-6.45v-17h9.32V500.8h-9.32Z" transform="translate(-379.25 -471.24)" style="fill:#8c929d"/><rect x="145.19" y="29.56" width="5.56" height="32.5" style="fill:#8c929d"/><rect x="145.19" y="19.49" width="5.56" height="5.58" style="fill:#8c929d"/><polygon points="44.05 81.51 60.28 31.36 27.84 31.36 44.05 81.51" style="fill:#e24329"/><path d="M384.36,502.61l-4.94,15.24a3.39,3.39,0,0,0,1.22,3.77l42.67,31.14Z" transform="translate(-379.25 -471.24)" style="fill:#fca326"/><path d="M384.36,502.61h22.73l-9.78-30.2a1.68,1.68,0,0,0-3.2,0Z" transform="translate(-379.25 -471.24)" style="fill:#e24329"/><path d="M462.26,502.61l4.92,15.24a3.39,3.39,0,0,1-1.22,3.77L423.3,552.76Z" transform="translate(-379.25 -471.24)" style="fill:#fca326"/><path d="M462.26,502.61H439.53l9.77-30.2a1.68,1.68,0,0,1,3.2,0Z" transform="translate(-379.25 -471.24)" style="fill:#e24329"/><polygon points="44.05 81.51 60.28 31.36 83.01 31.36 44.05 81.51" style="fill:#fc6d26"/><polygon points="44.05 81.51 5.11 31.36 27.84 31.36 44.05 81.51" style="fill:#fc6d26"/></svg>