<?xml version="1.0" encoding="UTF-8"?><svg id="uuid-ebbdf0f5-d8e8-4a7f-957e-3f7d7134bca7" xmlns="http://www.w3.org/2000/svg" xmlns:xlink="http://www.w3.org/1999/xlink" viewBox="0 0 111.64 111.82">
<title>Inkscape logo - Brandlogos.net</title><defs><clipPath id="uuid-393f7fba-ae27-413a-8e27-cb9c37e61de3"><path d="M46.05,4.22L5.38,45.87c-15.4,15.39,9.97,14.11,19.15,19.93,4.24,2.76-13.62,6.32-9.97,9.97,3.55,3.65,21.42,7.01,24.98,10.56,3.55,3.65-7.21,7.5-3.65,11.15,3.46,3.65,11.75.2,13.23,8.49,1.09,6.12,15.2,3.06,21.52-2.17,3.95-3.36-6.81-3.36-3.26-7.01,8.88-8.98,16.78-4.05,20.04-12.34,1.78-4.44-13.43-7.6-9.38-10.46,9.67-6.81,45.21-10.26,28.82-26.64L64.71,4.22c-5.23-4.93-13.82-4.93-18.66,0ZM36.28,68.07c.89,0,30.4,3.95,19.05,7.01-4.34,1.18-24.28-7.01-19.05-7.01ZM92.74,84.45c0,2.07,16.09,3.26,15.2-.49-1.28-6.32-13.43-5.82-15.2.49ZM24.14,95.4c3.65,3.16,9.18-.69,10.96-5.13-3.55-4.64-16.68.3-10.96,5.13ZM90.77,88.79c-4.54,4.14.79,8.49,5.23,5.63,1.18-.79-.1-4.64-5.23-5.63Z" style="fill:none;"/></clipPath><linearGradient id="uuid-08c06ef1-6344-4956-80b4-aeda29ba0a01" x1="100.85" y1="148.77" x2="78.73" y2="128.77" gradientTransform="translate(-8.01 178.15) scale(.99 -.99)" gradientUnits="userSpaceOnUse"><stop offset="0" stop-color="#c0cdf9"/><stop offset="1" stop-color="#07092d" stop-opacity=".29"/></linearGradient><linearGradient id="uuid-83279583-b63b-49a5-9d32-39c3b03bf0d6" x1="23.32" y1="162.67" x2="48.32" y2="137.67" gradientTransform="translate(3.78 187.26) scale(1.01 -1.01)" gradientUnits="userSpaceOnUse"><stop offset="0" stop-color="#fff"/><stop offset="1" stop-color="#fff" stop-opacity="0"/></linearGradient><linearGradient id="uuid-6d3c74af-b78e-44ec-aa67-f370fab922a2" x1="46.2" y1="164.15" x2="76.2" y2="134.15" gradientTransform="translate(-2.13 182.67) scale(1 -1)" xlink:href="#uuid-83279583-b63b-49a5-9d32-39c3b03bf0d6"/><radialGradient id="uuid-147ee7ac-8707-477a-b2bd-45f8801e135d" cx="248.64" cy="-338.42" fx="248.64" fy="-338.42" r="30.6" gradientTransform="translate(-169.15 -82.72) scale(.83 -.55)" gradientUnits="userSpaceOnUse"><stop offset="0" stop-color="#fff"/><stop offset="1" stop-color="#fff" stop-opacity="0"/></radialGradient><radialGradient id="uuid-0dfaf4f6-186d-4f9a-ab5a-8ddfe1c54a90" cx="87.37" cy="-203.13" fx="87.37" fy="-203.13" r="30.6" gradientTransform="translate(-42.11 -38.17) scale(1.06 -.71)" xlink:href="#uuid-147ee7ac-8707-477a-b2bd-45f8801e135d"/><radialGradient id="uuid-acb5aec9-9f93-46ef-ae9a-47101503aa1c" cx="810.22" cy="-1190.9" fx="810.22" fy="-1190.9" r="34.25" gradientTransform="translate(-336.33 -199.66) scale(.53 -.22)" xlink:href="#uuid-147ee7ac-8707-477a-b2bd-45f8801e135d"/><radialGradient id="uuid-503e8f2d-af87-4106-bf58-d18ef1a4f608" cx="817.47" cy="-1204.48" fx="817.47" fy="-1204.48" r="34.25" gradientTransform="translate(-336.33 -200.58) scale(.53 -.22)" xlink:href="#uuid-147ee7ac-8707-477a-b2bd-45f8801e135d"/><linearGradient id="uuid-c8b32f90-0e45-4608-bd98-3f2d86e1dbeb" x1="829.83" y1="-314.86" x2="829.96" y2="-321.17" gradientTransform="translate(-336.99 -86.58) scale(.53 -.53)" xlink:href="#uuid-83279583-b63b-49a5-9d32-39c3b03bf0d6"/><linearGradient id="uuid-8747fe45-a093-43f5-87f1-5be0b58334bf" x1="498.49" y1="39.8" x2="498.49" y2="35.35" gradientTransform="translate(-253.21 124.4) scale(.71 -1.14)" xlink:href="#uuid-83279583-b63b-49a5-9d32-39c3b03bf0d6"/><radialGradient id="uuid-cc4d8696-c16b-434c-aa51-8273649e4d9b" cx="828.19" cy="-4147.69" fx="828.19" fy="-4147.69" r="14.09" gradientTransform="translate(-336.33 -238.18) scale(.53 -.08)" xlink:href="#uuid-147ee7ac-8707-477a-b2bd-45f8801e135d"/><linearGradient id="uuid-b15abe22-c7da-4fd7-845c-1d67e41177d3" x1="1505.55" y1="-825.68" x2="1505.68" y2="-831.99" gradientTransform="translate(-412.38 -143.64) rotate(-26.88) scale(.23 -.53) skewX(-.03)" xlink:href="#uuid-83279583-b63b-49a5-9d32-39c3b03bf0d6"/><linearGradient id="uuid-6802496d-ccbf-45c0-8105-212b76706d35" x1="1000.34" y1="-197.36" x2="1000.34" y2="-201.81" gradientTransform="translate(-285.13 27.5) rotate(-26.88) scale(.31 -1.14) skewX(-.05)" xlink:href="#uuid-83279583-b63b-49a5-9d32-39c3b03bf0d6"/><radialGradient id="uuid-4f235953-85ee-478d-b285-314393434f6e" cx="1503.91" cy="-7605.12" fx="1503.91" fy="-7605.12" r="14.09" gradientTransform="translate(-480.7 -278.98) rotate(-26.88) scale(.23 -.08)" xlink:href="#uuid-147ee7ac-8707-477a-b2bd-45f8801e135d"/><radialGradient id="uuid-ff39dfbe-9173-4fe4-91e9-7174a423e60e" cx="689.85" cy="-1272.85" fx="689.85" fy="-1272.85" r="22.75" gradientTransform="translate(-336.33 -194.51) scale(.53 -.21)" gradientUnits="userSpaceOnUse"><stop offset="0" stop-color="#fff" stop-opacity=".33"/><stop offset="1" stop-color="#fff" stop-opacity="0"/></radialGradient><linearGradient id="uuid-91f01025-32f0-435d-bd18-deda765840b7" x1="670.5" y1="-917.46" x2="670.62" y2="-923.77" gradientTransform="translate(-396.74 -179.52) rotate(-12.38) scale(.48 -.39) skewX(-5.03)" xlink:href="#uuid-83279583-b63b-49a5-9d32-39c3b03bf0d6"/><linearGradient id="uuid-66783add-37ff-4b75-b1c3-ffe1c5e878d5" x1="380.16" y1="-239.97" x2="380.16" y2="-244.42" gradientTransform="translate(-273.75 -48.86) rotate(-12.38) scale(.64 -.83) skewX(-8.02)" xlink:href="#uuid-83279583-b63b-49a5-9d32-39c3b03bf0d6"/><radialGradient id="uuid-4ccbe4e4-a3c6-4300-a759-78c908ffa28d" cx="267.7" cy="-1823.39" fx="267.7" fy="-1823.39" r="10.47" gradientTransform="translate(-257.58 -284.27) rotate(-15.48) scale(.65 -.24)" xlink:href="#uuid-147ee7ac-8707-477a-b2bd-45f8801e135d"/><radialGradient id="uuid-2d5d336d-ea1b-4e7f-b10b-70aade919cb8" cx="-223.51" cy="314.81" fx="-223.51" fy="314.81" r="54.78" gradientTransform="translate(443.81 544.71) scale(1.72 -1.69)" xlink:href="#uuid-147ee7ac-8707-477a-b2bd-45f8801e135d"/><linearGradient id="uuid-fd7476ae-7206-4e16-afb0-142f2942171e" x1="807.04" y1="-374.38" x2="865.04" y2="-389.72" gradientTransform="translate(-358.78 -101.89) scale(.49 -.49)" xlink:href="#uuid-83279583-b63b-49a5-9d32-39c3b03bf0d6"/><linearGradient id="uuid-7f6d903e-8818-4909-be7d-931d3caf50a8" x1="138.21" y1="71.05" x2="134.62" y2="62.82" gradientTransform="translate(-75.65 129.77) scale(.88 -.88)" gradientUnits="userSpaceOnUse"><stop offset="0" stop-color="#eeeeec"/><stop offset="1" stop-color="#eeeeec" stop-opacity="0"/></linearGradient><radialGradient id="uuid-8ed2e1f5-c6be-4167-88da-1ecb07785a6b" cx="526.88" cy="-89.96" fx="526.88" fy="-89.96" r="22.47" gradientTransform="translate(-272.09 12.81) scale(.66 -.84)" xlink:href="#uuid-147ee7ac-8707-477a-b2bd-45f8801e135d"/><linearGradient id="uuid-54df3295-26e9-478d-ab9e-989c81fc1027" x1="769.77" y1="-350" x2="778.81" y2="-357.18" gradientTransform="translate(-355.9 -101.48) scale(.49 -.49)" xlink:href="#uuid-83279583-b63b-49a5-9d32-39c3b03bf0d6"/><linearGradient id="uuid-2e45cca7-9b96-48f1-b61f-1c95f41f7796" x1="906.99" y1="-386.88" x2="879.88" y2="-313.88" gradientTransform="translate(-358.78 -101.89) scale(.49 -.49)" gradientUnits="userSpaceOnUse"><stop offset="0" stop-color="#729fcf"/><stop offset="1" stop-color="#729fcf" stop-opacity="0"/></linearGradient></defs><g id="uuid-c873a20f-3176-4b70-91f3-98b55e921962" style="isolation:isolate;"><g id="uuid-19cc1d5d-9597-45ee-a040-adc9524db3d7" style="opacity:.78;"><path id="uuid-866f2a1a-42d5-4a0b-a58c-4b7c590bd43e" d="M45.96,4.71L4.9,46.75c-15.55,15.54,10.07,14.25,19.33,20.12,4.29,2.79-13.75,6.38-10.07,10.06,3.59,3.69,21.63,7.07,25.21,10.66,3.59,3.69-7.28,7.57-3.69,11.26,3.49,3.69,11.86.2,13.35,8.57,1.1,6.18,15.35,3.09,21.73-2.19,3.99-3.39-6.88-3.39-3.29-7.07,8.97-9.07,16.94-4.08,20.23-12.45,1.79-4.48-13.55-7.67-9.47-10.56,9.77-6.87,45.64-10.36,29.1-26.9L64.79,4.71c-5.28-4.98-13.95-4.98-18.84,0h0ZM93.1,85.71c0,2.09,16.24,3.29,15.35-.5-1.3-6.38-13.55-5.88-15.35.5ZM23.83,96.76c3.69,3.19,9.27-.7,11.06-5.18-3.59-4.68-16.84.3-11.06,5.18ZM91.1,90.09c-4.58,4.18.8,8.57,5.28,5.68,1.2-.8-.1-4.68-5.28-5.68Z"/><path id="uuid-9f2cc21b-d70f-4add-ab32-ae70af50d9c5" d="M45.96,5.68L4.9,47.72c-15.55,15.54,10.07,14.25,19.33,20.12,4.29,2.79-13.75,6.38-10.07,10.06,3.59,3.69,21.63,7.07,25.21,10.66,3.59,3.69-7.28,7.57-3.69,11.26,3.49,3.69,11.86.2,13.35,8.57,1.1,6.18,15.35,3.09,21.73-2.19,3.99-3.39-6.88-3.39-3.29-7.07,8.97-9.07,16.94-4.08,20.23-12.45,1.79-4.48-13.55-7.67-9.47-10.56,9.77-6.87,45.64-10.36,29.1-26.9L64.79,5.68c-5.28-4.98-13.95-4.98-18.84,0h0ZM93.1,86.68c0,2.09,16.24,3.29,15.35-.5-1.3-6.38-13.55-5.88-15.35.5ZM23.83,97.74c3.69,3.19,9.27-.7,11.06-5.18-3.59-4.68-16.84.3-11.06,5.18ZM91.1,91.06c-4.58,4.18.8,8.57,5.28,5.68,1.2-.8-.1-4.68-5.28-5.68Z" style="isolation:isolate; opacity:.58;"/></g><path id="uuid-7954324b-685d-4766-9e7a-6c0d9f89186d" d="M45.96,3.74L4.9,45.78c-15.55,15.54,10.07,14.25,19.33,20.12,4.29,2.79-13.75,6.38-10.07,10.06,3.59,3.69,21.63,7.07,25.21,10.66,3.59,3.69-7.28,7.57-3.69,11.26,3.49,3.69,11.86.2,13.35,8.57,1.1,6.18,15.35,3.09,21.73-2.19,3.99-3.39-6.88-3.39-3.29-7.07,8.97-9.07,16.94-4.08,20.23-12.45,1.79-4.48-13.55-7.67-9.47-10.56,9.77-6.87,45.64-10.36,29.1-26.9L64.79,3.74c-5.28-4.98-13.95-4.98-18.84,0ZM93.1,84.73c0,2.09,16.24,3.29,15.35-.5-1.3-6.38-13.55-5.88-15.35.5ZM23.83,95.79c3.69,3.19,9.27-.7,11.06-5.18-3.59-4.68-16.84.3-11.06,5.18ZM91.1,89.12c-4.58,4.18.8,8.57,5.28,5.68,1.2-.8-.1-4.68-5.28-5.68Z"/><path id="uuid-175151fe-f998-4182-9a70-185a7e7f543a" d="M45.96,3.74L4.9,45.78c-15.55,15.54,10.07,14.25,19.33,20.12,4.29,2.79-13.75,6.38-10.07,10.06,3.59,3.69,21.63,7.07,25.21,10.66,3.59,3.69-7.28,7.57-3.69,11.26,3.49,3.69,11.86.2,13.35,8.57,1.1,6.18,15.35,3.09,21.73-2.19,3.99-3.39-6.88-3.39-3.29-7.07,8.97-9.07,16.94-4.08,20.23-12.45,1.79-4.48-13.55-7.67-9.47-10.56,9.77-6.87,45.64-10.36,29.1-26.9L64.79,3.74c-5.28-4.98-13.95-4.98-18.84,0ZM93.1,84.73c0,2.09,16.24,3.29,15.35-.5-1.3-6.38-13.55-5.88-15.35.5ZM23.83,95.79c3.69,3.19,9.27-.7,11.06-5.18-3.59-4.68-16.84.3-11.06,5.18ZM91.1,89.12c-4.58,4.18.8,8.57,5.28,5.68,1.2-.8-.1-4.68-5.28-5.68Z" style="fill:none;"/><g style="clip-path:url(#uuid-393f7fba-ae27-413a-8e27-cb9c37e61de3);"><g id="uuid-f6f66e3f-fc9a-4eea-9da7-879673753e85"><path id="uuid-fe1ef226-0c29-48af-b15f-b7318d3883df" d="M46.05,4.22L5.38,45.87c-15.4,15.39,9.97,14.11,19.15,19.93,4.24,2.76-13.62,6.32-9.97,9.97,3.55,3.65,21.42,7.01,24.98,10.56,3.55,3.65-7.21,7.5-3.65,11.15,3.46,3.65,11.75.2,13.23,8.49,1.09,6.12,15.2,3.06,21.52-2.17,3.95-3.36-6.81-3.36-3.26-7.01,8.88-8.98,16.78-4.05,20.04-12.34,1.78-4.44-13.43-7.6-9.38-10.46,9.67-6.81,45.21-10.26,28.82-26.64L64.71,4.22c-5.23-4.93-13.82-4.93-18.66,0ZM36.28,68.07c.89,0,30.4,3.95,19.05,7.01-4.34,1.18-24.28-7.01-19.05-7.01ZM92.74,84.45c0,2.07,16.09,3.26,15.2-.49-1.28-6.32-13.43-5.82-15.2.49ZM24.14,95.4c3.65,3.16,9.18-.69,10.96-5.13-3.55-4.64-16.68.3-10.96,5.13ZM90.77,88.79c-4.54,4.14.79,8.49,5.23,5.63,1.18-.79-.1-4.64-5.23-5.63Z" style="fill:url(#uuid-08c06ef1-6344-4956-80b4-aeda29ba0a01);"/></g></g><path id="uuid-09a3881f-183a-4011-ace1-e0c0607136aa" d="M8.55,48.11c-11.16,11.06,8.45,7.94,23.53,13.87L63.26,7.19c-4.73-4.83-10.76-4.42-15.09,0L8.55,48.11Z" style="fill:url(#uuid-83279583-b63b-49a5-9d32-39c3b03bf0d6); isolation:isolate; opacity:.51;"/><path id="uuid-3da6341e-06dc-4fc9-bf39-15ce7cc1dc15" d="M62.3,6.72l16.24,16.54c1.49,1.49,1.49,4.58.6,5.48l-8.07-6.58-1.59,9.66-6.68-3.59-10.86,6.87-3.59-14.45-5.78,12.55-14.45-.1c-2.79,0-2.39-2.89.5-5.78,5.68-6.28,16.74-16.94,20.23-20.62,3.59-3.69,9.87-3.59,13.45,0Z" style="fill:url(#uuid-6d3c74af-b78e-44ec-aa67-f370fab922a2);"/><path id="uuid-6f99594b-d7e5-49fa-8c3e-16780b3f51b3" d="M40.01,84.85s1.76,2.69,1.58,3.96c-.35,2.48-5.71,3.72-4.52,5.94,1.17,2.19,5.4.95,8.94,3.23,3.53,2.28,2.58,6.91,5.15,8.08,5,2.28,18.14-3.92,17.48-3.79s-12.97,2.69-15.74.45c-3.16-2.56-4.07-4.34-6.4-5.85-2.18-1.42-5.25-1.99-5.97-3.15-.71-1.16,1.43-2.66,1.58-4.89.09-1.34-2.11-3.96-2.11-3.96Z" style="fill:url(#uuid-147ee7ac-8707-477a-b2bd-45f8801e135d); fill-rule:evenodd; isolation:isolate; opacity:.22;"/><path id="uuid-59bb71e5-136a-4917-9c96-4cbfa1ff8a4a" d="M40.01,84.85s1.76,2.69,1.58,3.96c-.35,2.48-5.71,3.72-4.52,5.94,1.17,2.19,5.4.95,8.94,3.23,3.53,2.28,2.58,6.91,5.15,8.08,5,2.28,18.14-3.92,17.48-3.79-21.82.08-17.75-5.54-26.16-9.23-1.22-.53-.51-1.99-.36-4.22.09-1.34-2.11-3.96-2.11-3.96Z" style="fill:url(#uuid-0dfaf4f6-186d-4f9a-ab5a-8ddfe1c54a90); fill-rule:evenodd; isolation:isolate; opacity:.28;"/><path id="uuid-b1c7fc2c-46eb-419f-a041-14ad191b2b79" d="M77.09,73.37c19.58-7.21,25.88-8.2,32.33-14.64-7.47,6.31-23.28,9.69-36.16,15.3l3.83-.66Z" style="fill:url(#uuid-acb5aec9-9f93-46ef-ae9a-47101503aa1c); fill-rule:evenodd; isolation:isolate; opacity:.45;"/><path id="uuid-731fdc8a-b606-4ac9-905c-a43673262356" d="M77.09,72.45c32.25-11.43,26.8-11.36,32.33-14.64-10.25,3.92-29.42,4.34-36.16,15.3l3.83-.66Z" style="fill:url(#uuid-503e8f2d-af87-4106-bf58-d18ef1a4f608); fill-rule:evenodd; isolation:isolate; opacity:.51;"/><path id="uuid-2459d3ee-c53c-4ecc-a149-e95664a4ff17" d="M105.26,81.59c0,.71-1.88,1.29-4.19,1.29s-4.19-.58-4.19-1.29,1.88-1.29,4.19-1.29,4.19.58,4.19,1.29Z" style="fill:url(#uuid-c8b32f90-0e45-4608-bd98-3f2d86e1dbeb); isolation:isolate; opacity:.29;"/><path id="uuid-4c7eba80-d325-459e-abf7-3d9856426853" d="M106.71,83.07c0,1.53-2.53,2.77-5.64,2.77s-5.64-1.24-5.64-2.77,2.53-2.77,5.64-2.77,5.64,1.24,5.64,2.77Z" style="fill:url(#uuid-8747fe45-a093-43f5-87f1-5be0b58334bf); isolation:isolate; opacity:.62;"/><path id="uuid-fea96fbd-0a65-42c3-bc36-0ea337d9ee3c" d="M93.38,84.61c1.99,1.84,13.07,2.78,14.88-.53-3.56,2.52-11.46,1.64-14.88.53Z" style="fill:url(#uuid-cc4d8696-c16b-434c-aa51-8273649e4d9b); fill-rule:evenodd;"/><path id="uuid-2ecd01bc-04a3-423d-a45b-1c9593c0faf4" d="M93.42,90.75c.41.8.14,1.75-.59,2.12s-1.65.02-2.06-.78-.14-1.75.59-2.12,1.65-.02,2.06.78Z" style="fill:url(#uuid-b15abe22-c7da-4fd7-845c-1d67e41177d3); isolation:isolate; opacity:.29;"/><path id="uuid-d794feca-38e7-4d26-a21e-3f41240001d1" d="M94.21,91.1c.61,1.2.23,2.61-.83,3.15s-2.43,0-3.03-1.19-.23-2.61.83-3.15,2.43,0,3.03,1.19Z" style="fill:url(#uuid-6802496d-ccbf-45c0-8105-212b76706d35); isolation:isolate; opacity:.62;"/><path id="uuid-3b4dd74f-b247-44ac-b046-83811984a16f" d="M90.67,94.46c1.6,1.25,7.62,1.41,5.33-2.22.6,2.85-3.51,2.55-5.33,2.22Z" style="fill:url(#uuid-4f235953-85ee-478d-b285-314393434f6e); fill-rule:evenodd;"/><path id="uuid-319d084c-f7b3-4977-94f1-bd7818772e02" d="M16.38,75.62c0-.33,20.5,6.25,24.02,9.76-2.89-2.82-17.5-9.3-19.73-9.37s-4.02-.26-4.29-.4Z" style="fill:url(#uuid-ff39dfbe-9173-4fe4-91e9-7174a423e60e); fill-rule:evenodd;"/><g id="uuid-148ea6ce-31a8-403c-83a4-a5f853d13253"><path id="uuid-5ba8c81c-b43c-462f-85f9-b69b9df973dd" d="M31.79,89.7c.17.49-1.35,1.26-3.38,1.7s-3.82.41-3.98-.09,1.35-1.26,3.38-1.7,3.82-.41,3.98.09Z" style="fill:url(#uuid-91f01025-32f0-435d-bd18-deda765840b7); isolation:isolate; opacity:.29;"/><path id="uuid-a87831a9-5f4b-479b-a1c8-9a23df412a95" d="M33.41,90.45c.36,1.06-1.57,2.42-4.31,3.02s-5.25.23-5.61-.84,1.57-2.42,4.31-3.02,5.25-.23,5.61.84Z" style="fill:url(#uuid-66783add-37ff-4b75-b1c3-ffe1c5e878d5); isolation:isolate; opacity:.62;"/></g><path id="uuid-bd1624e9-5823-470b-815f-86dee819803b" d="M22.95,93.03s1.11,2.98,4.16,3.13c3.08.15,6.6-3.7,6.89-5.08-.53,1.19-3.48,4.77-7.29,4.72-2.16-.03-3.76-2.77-3.76-2.77Z" style="fill:url(#uuid-4ccbe4e4-a3c6-4300-a759-78c908ffa28d); fill-rule:evenodd; isolation:isolate; opacity:.62;"/><path id="uuid-4f0c6a7e-9e6a-4724-8c55-9bb4c9fae685" d="M55.23,1.46c-3.09,0-6.11,1.12-8.25,3.3L5.93,46.79c-3.75,3.75-4.65,6.21-4.42,7.6.12.69.46,1.3,1.18,1.93.73.63,1.83,1.25,3.15,1.81,2.64,1.11,6.2,2,9.69,2.96s6.91,1.97,9.5,3.61c.4.26.77.57,1.03,1.03s.35,1.05.25,1.56c-.21,1.01-.83,1.54-1.46,2.02-1.27.96-3.01,1.77-4.76,2.62s-3.51,1.72-4.39,2.43c-.44.36-.6.68-.59.65,0-.02-.12-.27.09-.06.55.56,2.27,1.53,4.45,2.4s4.86,1.74,7.57,2.62,5.44,1.74,7.75,2.65,4.2,1.74,5.45,2.99c.62.64,1.06,1.43,1.15,2.24.09.81-.13,1.57-.44,2.21-.62,1.28-1.61,2.26-2.52,3.21-.91.95-1.73,1.85-2.02,2.46-.15.3-.17.5-.16.62s.04.25.31.53c.01.01.02.02.03.03,1.19,1.26,3.77,1.43,6.7,2.12,1.46.34,2.99.86,4.3,1.99s2.29,2.86,2.71,5.2c.18.99.7,1.47,1.96,1.87,1.26.39,3.18.46,5.29.16,4.22-.62,9.23-2.69,12.11-5.07.18-.15.13-.11.19-.19-.19-.14-.65-.43-1.4-.81-.89-.44-1.94-.86-2.74-1.87-.4-.51-.68-1.3-.56-2.09.12-.78.54-1.43,1.12-2.02,4.73-4.78,9.39-5.92,12.89-6.85,1.75-.46,3.22-.89,4.33-1.59s1.98-1.66,2.71-3.52c.08-.2.08-.26-.03-.5-.11-.24-.4-.62-.87-1.03-.94-.82-2.5-1.69-4.05-2.55s-3.05-1.66-4.14-2.68c-.55-.51-1.12-1.15-1.18-2.12-.07-.97.57-1.84,1.31-2.37,2.74-1.93,6.87-3.39,11.37-4.95,4.49-1.56,9.33-3.17,13.27-5.01s6.83-3.96,7.75-6.1c.46-1.07.54-2.15.06-3.55-.48-1.4-1.58-3.11-3.55-5.07L63.8,4.79s-.02-.02-.03-.03c-2.35-2.2-5.46-3.3-8.53-3.3h0ZM101.01,81.16c-2.63.09-5.04,1.3-6.07,3.18.29.11.56.23,1.03.34,1.37.32,3.28.52,5.17.56,1.89.04,3.77-.12,4.92-.44.5-.14.77-.28.9-.37-.25-1.09-.86-1.86-1.9-2.43-1.07-.59-2.55-.89-4.05-.84ZM30.75,90.19c-2.08-.14-4.7.68-5.98,1.71-.64.51-.91.99-.93,1.31-.02.32.08.74.93,1.46,0,.01,0,.02,0,.03,1.35,1.17,2.87,1.04,4.61.09,1.46-.8,2.75-2.29,3.61-3.86-.58-.38-1.28-.68-2.24-.75ZM91.54,90.82c-.45.57-.69,1.09-.72,1.46-.04.51.11.9.5,1.28.73.7,2.33,1,3.96.12-.03-.19-.09-.47-.34-.84-.5-.73-1.66-1.52-3.39-2.02Z" style="fill:none; stroke:url(#uuid-2d5d336d-ea1b-4e7f-b10b-70aade919cb8); stroke-miterlimit:3.99; stroke-width:1px;"/><path id="uuid-6133bf68-46ed-428f-bb8a-d842e402de8b" d="M32.73,67.28c-2.48.73-10.51,3.76-9.37,6.08,1.09,2.22,19.76,3.11,22.63,9.73,1.25,2.88-2.87,5.06-1.82,8.03.8,2.28,7.01,8.02,10.94,10.74,3.08,2.13,7.13-1.71,5.48-4.9-2.63-5.07,8.97-11.29,14.23-14.11,3.07-1.65-6.33-9.73-6.33-9.73l-35.77-5.84Z" style="fill:url(#uuid-fd7476ae-7206-4e16-afb0-142f2942171e); fill-rule:evenodd; isolation:isolate; opacity:.33;"/><path id="uuid-d28b7f3f-872b-4be3-b094-e015972c8db1" d="M33.64,69.52c2.22,1.63,6.61.65,9.25,1.83,6.33,2.85,14.11,6.02,12.68.4l-1.61,1.34-.03-2.55-3.74.91s-2.9-2.32-4.22-3.09c-.28-.16-1.7,1.29-1.7,1.29l-.26-1.54c-1.85-.2-3.68-.28-5.3-.27-3.87.03-6.48.64-5.07,1.67h0Z" style="fill:url(#uuid-7f6d903e-8818-4909-be7d-931d3caf50a8); fill-rule:evenodd;"/><path id="uuid-fe7d41ce-5de3-49fd-8158-53833e8e551f" d="M75.18,74.7c-.86,3.15,10.52,7.43,9.67,9.61-1.88,4.79-12.15,1.53-20.01,11.55-1.13,1.44,1.58,6.57,1.22,5.96s-3.15-4.85-2.43-6.93c2.24-6.54,23.85-8.98,19.89-12.1-2.28-1.8-10.47-6.76-8.33-8.09Z" style="fill:url(#uuid-8ed2e1f5-c6be-4167-88da-1ecb07785a6b); fill-rule:evenodd; isolation:isolate; opacity:.48;"/><path id="uuid-cc3408fe-f8ef-4fdf-8239-6eb269d6302c" d="M100.79,81.18c0,.29-.56.52-1.25.52s-1.25-.23-1.25-.52.56-.52,1.25-.52,1.25.23,1.25.52Z" style="fill:#fff; isolation:isolate; opacity:.59;"/><path id="uuid-b435a3c6-3f47-41ed-a4c0-e7d49ae8ab05" d="M92.46,90.72c0,.29-.35.52-.79.52s-.79-.23-.79-.52.35-.52.79-.52.79.23.79.52Z" style="fill:#fff; isolation:isolate; opacity:.59;"/><path id="uuid-b5c97a34-3229-440b-8ba3-313170fb9cc3" d="M29.38,90.27c0,.29-.63.52-1.4.52s-1.4-.23-1.4-.52.63-.52,1.4-.52,1.4.23,1.4.52Z" style="fill:#fff; isolation:isolate; opacity:.59;"/><path id="uuid-799c1693-5b95-4db5-b29d-398e141c51f2" d="M28.59,67.53c-7.13,4.41-18.21,6.01-6.08,8.94-1.44-3.22,3.13-2.86,6.08-8.94Z" style="fill:url(#uuid-54df3295-26e9-478d-ab9e-989c81fc1027); isolation:isolate; opacity:.25;"/><path id="uuid-5798b4c5-86b5-4cfe-8041-8f062885fd08" d="M53.89,107.66s10.99-1.04,13.54-4.21c1.49-1.86-5.91-4.02-4.32-5.84,6.01-6.84,11.06-6.55,18.03-9.42,6.97-2.86,4.4-4.27,2.14-5.52-3.86-2.15-12.45-4.45-9.61-9.56,2.86-5.14,27.91-12.28,27.91-12.28,7.59-2.59,6.64-7.28,2.92-11.19l-22.39-22.26s1.11,21.11-3.41,30.16c-5.58,11.19-35.3,23.67-22.87,25.05,4.38.49,6.48,1.98,8.27,5.35,3.69,6.94-10.22,19.7-10.22,19.7Z" style="fill:url(#uuid-2e45cca7-9b96-48f1-b61f-1c95f41f7796); isolation:isolate; opacity:.36;"/></g></svg>