<?xml version="1.0" encoding="UTF-8"?><svg id="Layer_1" xmlns="http://www.w3.org/2000/svg" xmlns:xlink="http://www.w3.org/1999/xlink" viewBox="0 0 297.66 64"><defs><style>.cls-1{fill:url(#linear-gradient);}.cls-2{fill:#fff;}</style><linearGradient id="linear-gradient" x1=".85" y1="3.28" x2="62.62" y2="64.19" gradientTransform="translate(0 66) scale(1 -1)" gradientUnits="userSpaceOnUse"><stop offset="0" stop-color="#ff9419"/><stop offset=".43" stop-color="#ff021d"/><stop offset=".99" stop-color="#e600ff"/></linearGradient></defs><path d="M86.48,40.59c0,.85-.18,1.59-.54,2.25-.36.66-.86,1.17-1.51,1.52-.66.36-1.39.54-2.24.54h-4.19v6.1h5.08c1.91,0,3.62-.43,5.15-1.28s2.72-2.04,3.58-3.55c.87-1.5,1.3-3.2,1.3-5.09v-20.07h-6.63s0,19.57,0,19.57ZM104.34,38.76h13.89v-5.61h-13.89v-6.36h15.35v-5.78h-21.82v29.97h22.25v-5.78h-15.78v-6.45ZM122.2,26.96h8.88v24.02h6.63v-24.02h8.84v-5.95h-24.37v5.96h.01s0,0,0,0ZM169.23,35.97c-.52-.28-1.09-.49-1.67-.65.45-.13.88-.29,1.27-.49,1.1-.57,1.96-1.36,2.58-2.39.62-1.03.94-2.2.94-3.54,0-1.52-.42-2.89-1.24-4.09-.83-1.19-1.99-2.13-3.49-2.81-1.49-.67-3.21-1.01-5.12-1.01h-13.32v29.97h13.57c2.01,0,3.8-.35,5.39-1.06,1.57-.71,2.8-1.68,3.68-2.95.87-1.25,1.3-2.69,1.3-4.3,0-1.48-.34-2.81-1.03-3.98-.69-1.17-1.63-2.08-2.86-2.73,0,0,0,0,0,0ZM155.62,26.05h5.89c.82,0,1.53.15,2.16.44.63.29,1.12.71,1.46,1.25.35.54.53,1.18.53,1.9s-.18,1.41-.53,1.98c-.35.57-.84,1-1.46,1.3-.63.31-1.35.46-2.16.46h-5.89v-7.35h0ZM165.76,44.18c-.38.57-.92,1.01-1.6,1.31-.7.31-1.48.46-2.39.46h-6.15v-7.69h6.15c.89,0,1.67.17,2.37.5.69.33,1.24.79,1.61,1.38s.58,1.27.58,2.04-.19,1.42-.57,1.99h0ZM195.36,38.87c1.66-.8,2.95-1.92,3.86-3.37.92-1.44,1.37-3.12,1.37-5.03s-.45-3.53-1.34-4.96c-.9-1.43-2.17-2.54-3.81-3.33-1.64-.79-3.55-1.18-5.72-1.18h-13.12v29.97h6.64v-10.91h4.32l6.08,10.91h7.58l-6.85-11.72c.34-.12.68-.25,1-.4h-.01ZM193.21,32.75c-.37.63-.9,1.12-1.58,1.44-.69.34-1.49.51-2.42.51h-5.98v-8.3h5.98c.93,0,1.73.17,2.42.5.69.33,1.21.82,1.58,1.43.37.62.56,1.35.56,2.19s-.19,1.57-.56,2.2v.02ZM213.8,21.02l-10.71,29.97h6.74l2.12-6.61h11.11l2.27,6.61h6.61l-10.96-29.97h-7.19ZM213.46,39.36l3.45-10.58.41-1.92.41,1.92,3.68,10.58h-7.95ZM234.15,50.99h6.85v-29.97h-6.85v29.97ZM265.17,41.29l-12.9-20.27h-6.46v29.97h6.05v-20.27l12.83,20.27h6.53v-29.97h-6.05v20.28ZM296.7,37.94c-.65-1.24-1.56-2.29-2.73-3.14-1.17-.85-2.51-1.4-4.02-1.69l-5.1-1.05c-.8-.19-1.43-.52-1.9-1-.47-.48-.71-1.08-.71-1.78,0-.65.17-1.2.52-1.68.34-.48.83-.85,1.44-1.12.62-.27,1.33-.4,2.15-.4s1.55.14,2.18.42,1.11.67,1.46,1.18.53,1.08.53,1.72h6.64c-.04-1.74-.53-3.29-1.44-4.62-.92-1.34-2.2-2.39-3.83-3.15-1.63-.76-3.51-1.14-5.6-1.14s-3.94.39-5.57,1.18c-1.62.79-2.9,1.87-3.8,3.27-.91,1.39-1.36,2.98-1.36,4.76,0,1.44.29,2.75.88,3.9.59,1.17,1.41,2.13,2.48,2.9,1.08.77,2.31,1.3,3.73,1.6l5.4,1.12c.89.21,1.58.6,2.1,1.16.52.56.77,1.24.77,2.08,0,.67-.19,1.27-.57,1.8-.38.53-.91.94-1.58,1.22s-1.47.43-2.39.43-1.78-.16-2.53-.48c-.75-.32-1.33-.78-1.73-1.37-.42-.59-.62-1.27-.62-2.04h-6.64c.03,1.87.53,3.52,1.51,4.95.98,1.42,2.32,2.54,4.03,3.34,1.71.8,3.67,1.19,5.89,1.19s4.2-.41,5.92-1.22c1.72-.82,3.06-1.94,4.02-3.38s1.44-3.06,1.44-4.87c0-1.48-.33-2.85-.98-4.1h.02s0,.01,0,.01Z"/><path class="cls-1" d="M20.34,3.66L3.66,20.34c-2.34,2.34-3.66,5.52-3.66,8.84v29.82c0,2.76,2.24,5,5,5h29.82c3.32,0,6.49-1.32,8.84-3.66l16.68-16.68c2.34-2.34,3.66-5.52,3.66-8.84V5c0-2.76-2.24-5-5-5h-29.82c-3.32,0-6.49,1.32-8.84,3.66Z"/><path d="M48,16H8v40h40V16Z"/><path class="cls-2" d="M30,47H13v4h17v-4Z"/></svg>