<?xml version="1.0" encoding="UTF-8"?><svg id="Layer_1" xmlns="http://www.w3.org/2000/svg" xmlns:xlink="http://www.w3.org/1999/xlink" viewBox="0 0 707.46 153.61"><defs><style>.cls-1{fill:none;}.cls-2{fill:url(#linear-gradient);}.cls-3{clip-path:url(#clippath);}</style><clipPath id="clippath"><polygon class="cls-1" points="0 5.82 0 151.15 0 151.15 145.33 151.15 145.33 151.15 72.66 78.48 145.33 5.82 0 5.82"/></clipPath><linearGradient id="linear-gradient" x1="-1564.81" y1="1154.93" x2="-1564.16" y2="1154.93" gradientTransform="translate(-467078.28 -344785.65) rotate(-180) scale(298.6 -298.6)" gradientUnits="userSpaceOnUse"><stop offset="0" stop-color="#e44857"/><stop offset="0" stop-color="#e44857"/><stop offset=".47" stop-color="#c711e1"/><stop offset="1" stop-color="#7f52ff"/></linearGradient></defs><g class="cls-3"><rect class="cls-2" x="-30.1" y="-24.28" width="205.52" height="205.52" transform="translate(-34.21 74.37) rotate(-45)"/></g><polygon points="320.63 5.6 291.77 5.6 228.88 72.66 228.88 5.81 205.73 5.81 205.73 151.12 228.88 151.12 228.88 80.75 291.98 151.12 321.88 151.12 254.62 75.97 320.63 5.6"/><path d="M399.31,49.46c-8.24-4.74-17.55-7.11-27.93-7.11s-20.07,2.37-28.43,7.11c-8.38,4.74-14.9,11.33-19.57,19.77-4.66,8.44-7,18.03-7,28.75s2.32,20.31,6.95,28.75c4.64,8.44,11.12,15.03,19.46,19.77,8.34,4.74,17.81,7.11,28.38,7.11s19.81-2.37,28.08-7.11c8.26-4.74,14.7-11.33,19.3-19.77,4.6-8.44,6.9-18.02,6.9-28.75s-2.3-20.31-6.9-28.75c-4.6-8.44-11.02-15.03-19.25-19.77M397.84,116.3c-2.56,5.3-6.15,9.43-10.79,12.4-4.64,2.98-9.96,4.46-15.99,4.46s-11.48-1.49-16.2-4.46c-4.7-2.97-8.35-7.11-10.95-12.4-2.59-5.29-3.88-11.4-3.88-18.32s1.31-13.03,3.95-18.32c2.62-5.29,6.28-9.43,11-12.4,4.7-2.98,10.13-4.46,16.3-4.46s11.25,1.49,15.87,4.46c4.64,2.98,8.21,7.11,10.75,12.4,2.52,5.29,3.79,11.4,3.79,18.32s-1.29,13.03-3.85,18.32"/><path d="M472.69,18.27h-22.42v18.06c0,2.84-.69,4.97-2.08,6.38-1.39,1.42-3.53,2.13-6.43,2.13h-11v19.1h19.09v57.19c0,5.95,1.21,11.19,3.64,15.72,2.41,4.53,5.86,8.05,10.32,10.53,4.47,2.49,9.74,3.74,15.84,3.74h17.12v-19.93h-12.87c-3.33,0-6.03-1.16-8.1-3.48-2.07-2.32-3.11-5.38-3.11-9.18v-54.6h24.7v-19.1h-24.7v-26.57Z"/><rect x="515.24" width="22.83" height="151.12"/><rect x="563.81" y=".21" width="23.04" height="23.46"/><rect x="563.81" y="44.84" width="22.83" height="106.28"/><path d="M702.62,62.38c-3.22-6.3-7.75-11.21-13.59-14.74-5.85-3.53-12.68-5.3-20.5-5.3-8.3,0-15.59,2.03-21.85,6.07-4.97,3.21-8.99,7.54-12.15,12.89l-.14-16.47h-21.8v106.28h22.84v-59.47c0-5.74,1.09-10.84,3.27-15.31,2.18-4.46,5.26-7.92,9.24-10.38,3.97-2.46,8.62-3.68,13.96-3.68,4.78,0,8.87,1,12.3,3.01,3.43,2.01,6.01,4.88,7.78,8.61,1.77,3.74,2.65,8.2,2.65,13.39v63.83h22.84v-67.05c0-8.17-1.62-15.4-4.84-21.69"/></svg>