<svg xmlns="http://www.w3.org/2000/svg" viewBox="0 0 340.12 55.02"><title>Microsoft 365 logo - Brandlogos.net</title><rect width="26.14" height="26.14" style="fill:#f25022"/><rect x="28.87" width="26.14" height="26.14" style="fill:#7fba00"/><rect y="28.88" width="26.14" height="26.14" style="fill:#00a4ef"/><rect x="28.87" y="28.88" width="26.14" height="26.14" style="fill:#ffb900"/><path d="M312.34,405.37l-1.54,4.32h-.09a41.35,41.35,0,0,0-1.46-4.28L301,384.68h-8.08v33h5.33V397.38c0-1.25,0-2.76-.08-4.49,0-.88-.13-1.58-.15-2.11h.12c.27,1.24.55,2.19.76,2.82l9.91,24h3.73l9.84-24.27a21.52,21.52,0,0,0,.68-2.6h.12c-.13,2.4-.24,4.6-.25,5.92v20.95h5.69v-33h-7.76Z" transform="translate(-221.38 -373.67)" style="fill:#737373"/><rect x="112.54" y="20.35" width="5.56" height="23.63" style="fill:#737373"/><path d="M336.76,384a3.35,3.35,0,0,0-2.37.93,3.06,3.06,0,0,0-1,2.32,3,3,0,0,0,1,2.27,3.39,3.39,0,0,0,2.38.9,3.43,3.43,0,0,0,2.39-.9,3,3,0,0,0,1-2.27,3.12,3.12,0,0,0-1-2.29,3.31,3.31,0,0,0-2.42-1" transform="translate(-221.38 -373.67)" style="fill:#737373"/><path d="M359.16,393.79a15.39,15.39,0,0,0-3.11-.33,13.71,13.71,0,0,0-6.76,1.62,10.93,10.93,0,0,0-4.46,4.58,14.58,14.58,0,0,0-1.53,6.79,12.54,12.54,0,0,0,1.49,6.09,10.46,10.46,0,0,0,4.16,4.21,12.4,12.4,0,0,0,6.08,1.48,13.3,13.3,0,0,0,6.7-1.57l.07,0v-5.09l-.23.17a10.43,10.43,0,0,1-2.72,1.42,8.22,8.22,0,0,1-2.66.52,6.84,6.84,0,0,1-5.2-2,7.88,7.88,0,0,1-1.92-5.62,8.18,8.18,0,0,1,2-5.77,6.81,6.81,0,0,1,5.21-2.15,8.92,8.92,0,0,1,5.29,1.84l.23.17V394.7l-.07,0a9.21,9.21,0,0,0-2.57-.87" transform="translate(-221.38 -373.67)" style="fill:#737373"/><path d="M377.47,393.61a5.7,5.7,0,0,0-3.72,1.33,7.52,7.52,0,0,0-2.14,3.17h-.06V394H366v23.63h5.56V405.56a8.42,8.42,0,0,1,1.38-5,4.25,4.25,0,0,1,3.59-1.9,6.55,6.55,0,0,1,1.67.25,4.23,4.23,0,0,1,1.3.52l.23.17V394l-.09,0a5.75,5.75,0,0,0-2.18-.33" transform="translate(-221.38 -373.67)" style="fill:#737373"/><path d="M392.56,393.45c-3.9,0-7,1.14-9.2,3.39s-3.32,5.37-3.32,9.26a12.05,12.05,0,0,0,3.24,8.84,11.77,11.77,0,0,0,8.71,3.27,12,12,0,0,0,9-3.44,12.69,12.69,0,0,0,3.32-9.17c0-3.76-1-6.76-3.12-8.91s-5-3.25-8.65-3.25M397,411.65a5.64,5.64,0,0,1-4.67,2,6,6,0,0,1-4.79-2,8.54,8.54,0,0,1-1.72-5.68,8.88,8.88,0,0,1,1.72-5.83,5.87,5.87,0,0,1,4.74-2,5.78,5.78,0,0,1,4.62,2,8.7,8.7,0,0,1,1.68,5.78,9.28,9.28,0,0,1-1.59,5.85" transform="translate(-221.38 -373.67)" style="fill:#737373"/><path d="M416.66,403.79a12.1,12.1,0,0,1-3.34-1.73,2.43,2.43,0,0,1-.67-1.82,2,2,0,0,1,.86-1.68,3.83,3.83,0,0,1,2.39-.68,9.79,9.79,0,0,1,2.85.44,9.17,9.17,0,0,1,2.49,1.15l.23.16v-5.14l-.09,0a12.27,12.27,0,0,0-2.53-.7,15.5,15.5,0,0,0-2.77-.29,10.17,10.17,0,0,0-6.52,2,6.43,6.43,0,0,0-2.54,5.24,7.32,7.32,0,0,0,.55,2.93,5.86,5.86,0,0,0,1.68,2.2,14.66,14.66,0,0,0,3.42,1.91,25.39,25.39,0,0,1,2.84,1.32,3.94,3.94,0,0,1,1.25,1,2.3,2.3,0,0,1,.35,1.34c0,1.59-1.19,2.36-3.63,2.36a10,10,0,0,1-3.08-.56,11.57,11.57,0,0,1-3.15-1.6l-.23-.17v5.42l.09,0a14,14,0,0,0,3,.92,16,16,0,0,0,3.18.37,10.8,10.8,0,0,0,6.88-2,6.55,6.55,0,0,0,2.56-5.37,6.16,6.16,0,0,0-1.38-4.06,11.8,11.8,0,0,0-4.68-3" transform="translate(-221.38 -373.67)" style="fill:#737373"/><path d="M437.66,393.45c-3.9,0-7,1.14-9.2,3.39s-3.32,5.37-3.32,9.26a12,12,0,0,0,3.24,8.84,11.77,11.77,0,0,0,8.71,3.27,12,12,0,0,0,9-3.44,12.69,12.69,0,0,0,3.32-9.17c0-3.76-1-6.76-3.12-8.91s-5-3.25-8.65-3.25m4.42,18.19a5.64,5.64,0,0,1-4.67,2,6,6,0,0,1-4.79-2,8.54,8.54,0,0,1-1.72-5.68,8.88,8.88,0,0,1,1.72-5.83,5.87,5.87,0,0,1,4.74-2,5.78,5.78,0,0,1,4.62,2,8.7,8.7,0,0,1,1.68,5.78,9.28,9.28,0,0,1-1.59,5.85" transform="translate(-221.38 -373.67)" style="fill:#737373"/><path d="M479.06,398.56V394h-5.63v-7l-.19.06L468,388.65l-.1,0V394h-8.34v-3a4.72,4.72,0,0,1,.92-3.15,3.24,3.24,0,0,1,2.58-1.05,6,6,0,0,1,2.45.56l.21.09v-4.77l-.1,0a9.52,9.52,0,0,0-3.13-.42,9.17,9.17,0,0,0-4.43,1.07,7.58,7.58,0,0,0-3,3,9,9,0,0,0-1.08,4.41V394H450v4.53h3.92v19.09h5.63V398.56h8.34v12.13c0,5,2.36,7.53,7,7.53a11.44,11.44,0,0,0,2.39-.27,6.59,6.59,0,0,0,1.74-.55l.07,0v-4.58l-.23.15a3.88,3.88,0,0,1-1.13.49,4.3,4.3,0,0,1-1.11.19,3,3,0,0,1-2.4-.87,4.7,4.7,0,0,1-.76-3V398.56Z" transform="translate(-221.38 -373.67)" style="fill:#737373"/><path d="M492.46,416.43v-5a11.81,11.81,0,0,0,7.42,2.54,8.75,8.75,0,0,0,5.35-1.49,4.75,4.75,0,0,0,2-4q0-5.59-8.76-5.59h-2.61V398.6h2.49q7.77,0,7.77-5.27,0-4.86-6.06-4.86a10.08,10.08,0,0,0-6.36,2.36V386.1a16.6,16.6,0,0,1,8.1-1.88,11,11,0,0,1,7.19,2.2,7,7,0,0,1,2.7,5.64q0,6.49-6.76,8.34v.09a8.93,8.93,0,0,1,5.75,2.5,7.28,7.28,0,0,1,2.11,5.34,8.72,8.72,0,0,1-3.41,7.15,14,14,0,0,1-9,2.7,15.61,15.61,0,0,1-8-1.76Z" transform="translate(-221.38 -373.67)" style="fill:#737373"/><path d="M538.69,407.08a11.68,11.68,0,0,1-.85,4.52,10.19,10.19,0,0,1-5.82,5.82,11.79,11.79,0,0,1-4.39.8,11.25,11.25,0,0,1-4.67-1,10.08,10.08,0,0,1-3.66-2.87,13.78,13.78,0,0,1-2.37-4.72,23.13,23.13,0,0,1-.85-6.58,27.12,27.12,0,0,1,1.1-8.09,17.78,17.78,0,0,1,3.08-5.91,12.93,12.93,0,0,1,10.26-4.86,21.6,21.6,0,0,1,3.45.25,9.79,9.79,0,0,1,2.51.69V390a16.42,16.42,0,0,0-2.56-1,10.79,10.79,0,0,0-3.12-.41,8.49,8.49,0,0,0-3.64.78,8.09,8.09,0,0,0-2.89,2.29,11.32,11.32,0,0,0-1.9,3.71,17.73,17.73,0,0,0-.7,5.09h.14a7.57,7.57,0,0,1,2.91-2.57,9.5,9.5,0,0,1,4.34-.94,10.53,10.53,0,0,1,4,.71,8,8,0,0,1,3,2,8.78,8.78,0,0,1,1.95,3.21,12.39,12.39,0,0,1,.68,4.24Zm-5.5.44a9,9,0,0,0-.35-2.59,5.19,5.19,0,0,0-1-2,4.47,4.47,0,0,0-1.74-1.31,6,6,0,0,0-2.44-.46,5.82,5.82,0,0,0-2.49.5,5.4,5.4,0,0,0-1.78,1.28,5.5,5.5,0,0,0-1.1,1.83,6.48,6.48,0,0,0-.35,2.11,9.36,9.36,0,0,0,.33,2.41,7.5,7.5,0,0,0,1.06,2.22,6,6,0,0,0,1.78,1.67,5.1,5.1,0,0,0,2.61.64,5.56,5.56,0,0,0,2.37-.48,4.72,4.72,0,0,0,1.71-1.33,5.7,5.7,0,0,0,1.06-2,8.19,8.19,0,0,0,.38-2.52Z" transform="translate(-221.38 -373.67)" style="fill:#737373"/><path d="M541.61,416.89v-5.11a12.11,12.11,0,0,0,6.72,2.18,8.49,8.49,0,0,0,5.52-1.7,5.61,5.61,0,0,0,2.09-4.56,5.08,5.08,0,0,0-2.14-4.36,10.13,10.13,0,0,0-6.08-1.56q-1.36,0-5.52.28l1.2-17.28H560v4.54h-12l-.56,8.23q1.62-.09,2.94-.09,5.35,0,8.27,2.68a9.44,9.44,0,0,1,2.94,7.33,9.93,9.93,0,0,1-3.36,7.84q-3.33,2.93-9.18,2.93-4.93,0-7.35-1.35Z" transform="translate(-221.38 -373.67)" style="fill:#737373"/></svg>