<svg viewBox="0 0 512 512" xmlns="http://www.w3.org/2000/svg" fill-rule="evenodd" clip-rule="evenodd" stroke-linejoin="round" stroke-miterlimit="2"><g transform="translate(61.419 6) scale(1.83824)"><path d="M211.5 156.5c-1.2-12.6-6.9-23.8-14.9-29.7-1.4-5.1-3.8-9.6-6.9-13.5-.5-5.9-3-17.5-14.7-27.8 1.3-1.2 2.5-2.5 3.4-4.1 9.8-4.4 16.6-13.5 17.4-20.3 5.2-5.2 8.2-11.4 8.4-17.5.1-2.9-.4-5.6-1.5-7.9 4.3-4.7 5.7-10.1 3.9-15.5-2.9-8.4-13.1-13.9-26.8-14.5-3.7-3.4-8.8-5.1-14.9-5.1-2.6 0-5.4.3-8.1 1-2.2-1.1-4.9-1.6-7.9-1.6-5.1 0-10.8 1.6-15.1 4.1-.7-.1-1.3-.1-1.9-.1-6.8 0-13.6 4.7-17.1 7.5-3.4 2.8-6.5 6-9 9.3-2.5-3.3-5.6-6.6-9-9.3C93.5 8.7 86.6 4 79.8 4c-.6 0-1.2 0-1.8.1C73.7 1.6 68 0 62.9 0c-3 0-5.7.6-7.9 1.6-2.7-.7-5.4-1-8.1-1C40.8.6 35.6 2.4 32 5.7c-13.8.6-24 6.1-26.9 14.5C3.3 25.5 4.7 31 9 35.7c-1.1 2.3-1.6 5-1.5 7.9.2 6.1 3.2 12.3 8.4 17.5.8 6.8 7.7 16 17.4 20.3.9 1.6 2.1 3 3.4 4.1C25 95.7 22.5 107.3 22 113.3c-3.2 3.9-5.5 8.4-6.9 13.5-8 5.9-13.7 17.1-14.9 29.7-1.2 12.5 2.3 24.2 9.3 31.6 1 5.6 4.2 13 7.6 17.5.7 9.5 4.7 18.9 11.5 26.5 6.8 7.7 15.7 13 25.3 15 5.8 5.4 11.9 9.2 20.2 12.5 3.6 3.7 14.2 12.4 31.8 12.4s28.2-8.8 31.8-12.4c8.3-3.3 14.4-7.1 20.2-12.5 9.6-2 18.5-7.3 25.3-15 6.7-7.6 10.8-17 11.5-26.5 3.4-4.5 6.6-11.8 7.6-17.5 7-7.4 10.4-19.1 9.2-31.6z" fill="#1d1d1b" fill-rule="nonzero"/><path d="M131.5 18.3c.7-.2 1.4.4 1.4 1.1-.3 3.2 1.6 2.8 2.1 2.3 5.1-6.3 10.5-7.8 15.3-7.4.8.1 1.3 1.1.7 1.7-1.9 2.8.1 3.4.9 2.9 7.8-4.9 15.3-4.9 18.2-2.9.6.4.6 1.2.1 1.7-2.9 2.5-1.3 3.7-.3 3.3 8-2.8 19-.3 22.8 2.9.5.4.5 1.2 0 1.6-4.8 4.3-7.2 7.7-8.3 14.5-.2 1.9 2.9 1.5 4.3 1.2.7-.2 1.3.3 1.3 1 .1 4.6-4.2 9.6-10.7 13.9-.9.6-.7 2 1.2 2 .9.1 1.3.9.9 1.6-2.3 4.3-5.4 8.3-16.1 11-1 .3-1.1 1.6-.2 2.1.9.4 1 1.3.3 1.8-10.6 9.1-37.5 5.5-40.9-9.8-.1-.3 0-.6.2-.9 6.4-8.5 21.2-25.2 44.6-33.9.9-.4.6-1.8-.4-1.6-22.7 3.4-38.7 16-48.4 29.2-.3.4-.9.6-1.4.3-17-8.7-2.9-35 12.4-39.6zM30.2 59.9c-.4-.7 0-1.5.9-1.6 2-.1 2.1-1.4 1.2-2C25.9 52 21.5 47 21.6 42.4c0-.7.7-1.2 1.3-1 1.3.3 4.5.7 4.3-1.2-1.1-6.8-3.5-10.2-8.3-14.5-.5-.4-.5-1.2 0-1.6 3.8-3.2 14.8-5.7 22.8-2.9 1 .4 2.6-.9-.3-3.3-.5-.5-.5-1.3.1-1.7 3-2.2 10.5-2.2 18.3 2.7.8.5 2.8 0 .9-2.9-.5-.7-.1-1.7.7-1.7 4.8-.4 10.2 1 15.3 7.4.5.6 2.4 1 2.1-2.3-.1-.8.6-1.4 1.4-1.1 15.3 4.7 29.4 30.9 12.2 39.8-.5.2-1.1.1-1.4-.3C81.3 44.6 65.3 32 42.6 28.6c-1-.1-1.4 1.3-.4 1.6C65.6 39 80.4 55.6 86.8 64.1c.2.3.3.6.2.9-3.4 15.3-30.3 18.9-40.9 9.8-.6-.5-.6-1.4.3-1.8.9-.4.9-1.8-.2-2.1-10.6-2.7-13.7-6.8-16-11z" fill="#47ac4d" fill-rule="nonzero"/><path d="M173.8 106.8c4.4 11.8 1 17.4-9.5 11.4-8.3-4.5-16.1-11.1-22-18.5-7.9-9.4-2.8-13.6 9.7-11.3 9.2 2.3 18 9.6 21.8 18.4zM126.8 93.5c15 12.5-2.2 21.3-20.9 21.3S70 106 85 93.5c9-7 17.6-7.3 20.9-7.3 3.3 0 11.9.3 20.9 7.3zM38 106.8c3.8-8.7 12.6-16.1 21.9-18.3 12.4-2.3 17.6 1.9 9.7 11.3-5.9 7.4-13.7 13.9-22 18.5-10.6 5.9-14 .2-9.6-11.5zM16.3 172.1c-3.5-9.1-2.6-20.1 2.5-28.6 5.5-9.4 11.1-9 13.3-1.1 2.9 10.5 1.8 23.1-2.9 33-4.1 8.2-9.2 5.5-12.9-3.3zM56.2 233.1c-13.3-2.8-24.6-16.2-25.1-29.8 2.1-48.3 71.8 38.1 25.1 29.8zM57.6 172.9c-11.7-6.8-14.8-23.3-6.9-36.9 7.9-13.6 23.7-19.2 35.4-12.5 11.7 6.8 14.8 23.3 6.9 36.9-7.9 13.6-23.7 19.2-35.4 12.5zM125.4 251.6c-5.5 4-12.2 6.3-19.5 6.3-7.3 0-14-2.3-19.5-6.3-11.6-8 .1-17.2 19.5-17.2s31.1 9.2 19.5 17.2z" fill="#cc2455" fill-rule="nonzero"/><ellipse cx="105.9" cy="199" rx="27.1" ry="23.3" fill="#cc2455"/><path d="M118.7 160.4c-7.9-13.6-4.8-30.2 6.9-36.9 11.7-6.8 27.6-1.2 35.4 12.5 7.9 13.6 4.8 30.2-6.9 36.9-11.7 6.7-27.6 1.1-35.4-12.5zM155.5 233.1c-46.7 8.2 23-78.2 25.1-29.8-.5 13.6-11.8 27-25.1 29.8zM195.5 172.1c-3.7 8.8-8.8 11.5-12.9 3.4-4.6-9.9-5.7-22.5-2.9-33 2.2-8 7.8-8.4 13.3 1.1 5.1 8.4 5.9 19.4 2.5 28.5z" fill="#cc2455" fill-rule="nonzero"/></g></svg>