<?xml version="1.0" encoding="UTF-8"?>
<svg version="1.1" xmlns="http://www.w3.org/2000/svg" width="384" height="103">
<path d="M0 0 C3.3125 0.1875 3.3125 0.1875 7 1 C9.20885991 3.56512764 9.89867374 5.29071619 10.375 8.625 C9.93551743 11.4083896 9.17471852 12.27834784 7 14 C7.99 14.33 8.98 14.66 10 15 C10.66 18.96 11.32 22.92 12 27 C10.02 27.99 10.02 27.99 8 29 C7.67 29.99 7.34 30.98 7 32 C2.32299038 34.33850481 -3.69855628 33.4183212 -8.5 31.875 C-11 30 -11 30 -12.5625 27.0625 C-13 24 -13 24 -11.6875 21.75 C-11.130625 21.1725 -10.57375 20.595 -10 20 C-9.67 19.34 -9.34 18.68 -9 18 C-9.48726562 17.59523438 -9.97453125 17.19046875 -10.4765625 16.7734375 C-12.82513391 14.0394595 -12.42248097 11.70299393 -12.26953125 8.23046875 C-11.8732907 4.95143465 -11.44070572 3.29278416 -9 1 C-5.95649912 0.58988286 -3.05083351 0.71218552 0 1 C0 0.67 0 0.34 0 0 Z M-4 7 C0 8 0 8 0 8 Z M-4 9 C-4.33 9.99 -4.66 10.98 -5 12 C0.28199593 13.19988045 0.28199593 13.19988045 5 11 C1.5647952 8.70986347 0.014669 8.82157027 -4 9 Z M-8 20 C-7.34 21.32 -6.68 22.64 -6 24 C-3.36 24 -0.72 24 2 24 C2 23.01 2 22.02 2 21 C2 20.34 2 19.68 2 19 C-3.28199593 17.80011955 -3.28199593 17.80011955 -8 20 Z M4 21 C5 24 5 24 5 24 Z M-2 25 C2 26 2 26 2 26 Z M-5 31 C-5 31.33 -5 31.66 -5 32 C-2.03 32 0.94 32 4 32 C4 31.67 4 31.34 4 31 C1.03 31 -1.94 31 -5 31 Z " fill="#0D1220" transform="translate(44,31)"/>
<path d="M0 0 C0.90621094 0.144375 1.81242187 0.28875 2.74609375 0.4375 C9.58077705 1.47897555 16.08795238 2.23834647 23 2 C24.90120099 9.12950371 25.22424141 15.63740707 25 23 C22.36 23.66 19.72 24.32 17 25 C15.89131683 21.67395049 15.45822468 18.46941546 15 15 C14.80664062 15.63808594 14.61328125 16.27617188 14.4140625 16.93359375 C14.15367187 17.75988281 13.89328125 18.58617188 13.625 19.4375 C13.24214844 20.67306641 13.24214844 20.67306641 12.8515625 21.93359375 C12 24 12 24 10 25 C8.35857459 25.14640501 6.7101859 25.22096589 5.0625 25.25 C4.18722656 25.27578125 3.31195313 25.3015625 2.41015625 25.328125 C0 25 0 25 -1.75390625 23.671875 C-3 22 -3 22 -4 19 C-3.67 17.906875 -3.34 16.81375 -3 15.6875 C-1.74913687 12.12544012 -1.74913687 12.12544012 -2.5625 8.9375 C-3.13398035 5.10041764 -1.81237209 3.3419956 0 0 Z M12 5 C12.33 7.31 12.66 9.62 13 12 C13.33 12 13.66 12 14 12 C13.67 9.69 13.34 7.38 13 5 C12.67 5 12.34 5 12 5 Z M21 11 C21 13.64 21 16.28 21 19 C21.33 19 21.66 19 22 19 C22 16.36 22 13.72 22 11 C21.67 11 21.34 11 21 11 Z M23 13 C24 16 24 16 24 16 Z M7 16 C8 18 8 18 8 18 Z M2 17 C6 18 6 18 6 18 Z M1 23 C1 23.33 1 23.66 1 24 C3.97 24 6.94 24 10 24 C10 23.67 10 23.34 10 23 C7.03 23 4.06 23 1 23 Z " fill="#0E1423" transform="translate(267,39)"/>
<path d="M0 0 C2.97 0 5.94 0 9 0 C14.17373506 9.70075324 13.40477451 19.30461198 13 30 C12.67 30 12.34 30 12 30 C11.505 25.05 11.505 25.05 11 20 C10.34 20.99 9.68 21.98 9 23 C6.8359375 23.29296875 6.8359375 23.29296875 4.375 23.1875 C3.14910156 23.14689453 3.14910156 23.14689453 1.8984375 23.10546875 C1.27195312 23.07066406 0.64546875 23.03585938 0 23 C-0.33 25.31 -0.66 27.62 -1 30 C-3.64 30 -6.28 30 -9 30 C-9 20.43 -9 10.86 -9 1 C-7.02 1 -5.04 1 -3 1 C-2.34 1.66 -1.68 2.32 -1 3 C-0.67 2.01 -0.34 1.02 0 0 Z M-8 7 C-7 11 -7 11 -7 11 Z M1 8 C0.87625 8.804375 0.7525 9.60875 0.625 10.4375 C0.41875 11.283125 0.2125 12.12875 0 13 C-0.99 13.495 -0.99 13.495 -2 14 C-0.34385343 14.38218767 1.32457024 14.71395102 3 15 C4.29633621 13.93354885 4.29633621 13.93354885 4.0625 11.4375 C4.041875 10.633125 4.02125 9.82875 4 9 C3.01 8.67 2.02 8.34 1 8 Z M5 8 C5 10.31 5 12.62 5 15 C5.33 15 5.66 15 6 15 C6 12.69 6 10.38 6 8 C5.67 8 5.34 8 5 8 Z M-8 13 C-8 13.33 -8 13.66 -8 14 C-6.35 14 -4.7 14 -3 14 C-3 13.67 -3 13.34 -3 13 C-4.65 13 -6.3 13 -8 13 Z " fill="#0F1424" transform="translate(86,40)"/>
<path d="M0 0 C3 0.625 3 0.625 4.75 2.9375 C5.1625 3.824375 5.575 4.71125 6 5.625 C6.99 7.11 6.99 7.11 8 8.625 C8.44356463 14.12520144 8.30117406 17.05414361 5 21.625 C4.31903578 22.95108822 3.64669414 24.28186601 3 25.625 C0.69 25.625 -1.62 25.625 -4 25.625 C-4.33 27.605 -4.66 29.585 -5 31.625 C-7.64 31.625 -10.28 31.625 -13 31.625 C-12.96519531 30.51382813 -12.93039063 29.40265625 -12.89453125 28.2578125 C-12.71405211 19.89467213 -12.75017272 12.49809348 -16 4.625 C-12.5647952 2.33486347 -11.014669 2.44657027 -7 2.625 C-6.67 3.615 -6.34 4.605 -6 5.625 C-5.62875 4.8 -5.2575 3.975 -4.875 3.125 C-3 0.625 -3 0.625 0 0 Z M-2 1.625 C2 2.625 2 2.625 2 2.625 Z M-13 6.625 C-12 10.625 -12 10.625 -12 10.625 Z M-12 10.625 C-11 13.625 -11 13.625 -11 13.625 Z M-4 10.625 C-4 11.945 -4 13.265 -4 14.625 C-4.99 15.12 -4.99 15.12 -6 15.625 C-4.02 16.285 -2.04 16.945 0 17.625 C2.28728734 15.78616119 2.28728734 15.78616119 2.125 13 C2.08375 12.21625 2.0425 11.4325 2 10.625 C-0.49092811 9.37953595 -1.41080733 9.8482422 -4 10.625 Z M-4 23.625 C-4 23.955 -4 24.285 -4 24.625 C-2.02 24.625 -0.04 24.625 2 24.625 C2 24.295 2 23.965 2 23.625 C0.02 23.625 -1.96 23.625 -4 23.625 Z " fill="#0F1425" transform="translate(113,38.375)"/>
<path d="M0 0 C1.98 0 3.96 0 6 0 C6.33 3.96 6.66 7.92 7 12 C8.32 10.68 9.64 9.36 11 8 C14.25 7.25 14.25 7.25 17 7 C16.97679687 8.25296875 16.95359375 9.5059375 16.9296875 10.796875 C16.91092573 12.4479107 16.89272597 14.09895285 16.875 15.75 C16.85824219 16.575 16.84148437 17.4 16.82421875 18.25 C16.81777344 19.04921875 16.81132812 19.8484375 16.8046875 20.671875 C16.79421387 21.4050293 16.78374023 22.13818359 16.77294922 22.89355469 C17.03222456 25.29896076 17.80774075 26.91251494 19 29 C12.375 29.25 12.375 29.25 9 27 C8.01 27.66 7.02 28.32 6 29 C4.02 29 2.04 29 0 29 C0 19.43 0 9.86 0 0 Z M10 15 C11 17 11 17 11 17 Z M7 22 C8 24 8 24 8 24 Z " fill="#101626" transform="translate(190,33)"/>
<path d="M0 0 C1.0625 1.875 1.0625 1.875 2 4 C2.99 5.485 2.99 5.485 4 7 C4.53798071 12.59499934 3.57200415 16.14176994 1 21 C-2.10986207 23.07324138 -2.89108387 23.27392186 -6.4375 23.25 C-7.19933594 23.25515625 -7.96117187 23.2603125 -8.74609375 23.265625 C-11.25265415 22.97022447 -12.87106592 22.34359395 -15 21 C-15.6875 19 -15.6875 19 -16 17 C-16.33 16.34 -16.66 15.68 -17 15 C-17.07116382 12.62597499 -17.08409085 10.24999323 -17.0625 7.875 C-17.05347656 6.59367187 -17.04445312 5.31234375 -17.03515625 3.9921875 C-17.02355469 3.00476562 -17.01195312 2.01734375 -17 1 C-13.5 0.5 -13.5 0.5 -10 0 C-8.7625 -0.20625 -7.525 -0.4125 -6.25 -0.625 C-3 -1 -3 -1 0 0 Z M-7 6 C-7 6.66 -7 7.32 -7 8 C-7.99 7.67 -8.98 7.34 -10 7 C-10.33 7.33 -10.66 7.66 -11 8 C-10.71269945 10.33944736 -10.38063221 12.6739143 -10 15 C-7.08347826 15.16681109 -7.08347826 15.16681109 -4 15 C-1.71271266 13.16116119 -1.71271266 13.16116119 -1.875 10.375 C-1.91625 9.59125 -1.9575 8.8075 -2 8 C-2.66 7.67 -3.32 7.34 -4 7 C-4.99 7.495 -4.99 7.495 -6 8 C-6.33 7.34 -6.66 6.68 -7 6 Z M-11 21 C-11 21.33 -11 21.66 -11 22 C-8.36 22 -5.72 22 -3 22 C-3 21.67 -3 21.34 -3 21 C-5.64 21 -8.28 21 -11 21 Z " fill="#0E1422" transform="translate(225,41)"/>
<path d="M0 0 C1.98 0 3.96 0 6 0 C6 4.95 6 9.9 6 15 C9.19610552 11.80389448 9.87046085 10.03610832 11.1875 5.8125 C11.70376953 4.18248047 11.70376953 4.18248047 12.23046875 2.51953125 C12.48441406 1.68808594 12.73835938 0.85664062 13 0 C14.98 0 16.96 0 19 0 C19 9.57 19 19.14 19 29 C18.67 29 18.34 29 18 29 C18 27.02 18 25.04 18 23 C16.35 23 14.7 23 13 23 C12.67 20.69 12.34 18.38 12 16 C11.1646875 17.2375 11.1646875 17.2375 10.3125 18.5 C8 21 8 21 5.4375 21.5625 C3 21 3 21 1.359375 19.51171875 C-0.6526234 15.79414699 -0.32178083 12.40237634 -0.1875 8.25 C-0.17396484 7.45722656 -0.16042969 6.66445313 -0.14648438 5.84765625 C-0.11125223 3.89814436 -0.05744821 1.94898374 0 0 Z " fill="#0F1625" transform="translate(57,41)"/>
<path d="M0 0 C2.64 0 5.28 0 8 0 C8.268125 0.78375 8.53625 1.5675 8.8125 2.375 C9.84814432 5.28114923 9.84814432 5.28114923 13 7 C13.29296875 9.1640625 13.29296875 9.1640625 13.1875 11.625 C13.16042969 12.44226562 13.13335937 13.25953125 13.10546875 14.1015625 C13.07066406 14.72804688 13.03585938 15.35453125 13 16 C11.68 16 10.36 16 9 16 C9 17.65 9 19.3 9 21 C9.66 21 10.32 21 11 21 C12.60725635 24.21451269 12.05748185 27.43612536 12 31 C9.1875 30.8125 9.1875 30.8125 6 30 C4.3125 27.625 4.3125 27.625 3 25 C2.01979625 23.9805881 1.02196992 22.97753644 0 22 C-2.24234009 18.63648987 -2.27098215 17.37689944 -2.25 13.4375 C-2.25515625 12.46683594 -2.2603125 11.49617188 -2.265625 10.49609375 C-2 8 -2 8 0 6 C0.16681109 2.91652174 0.16681109 2.91652174 0 0 Z M7 14 C7 16.31 7 18.62 7 21 C7.33 21 7.66 21 8 21 C8 18.69 8 16.38 8 14 C7.67 14 7.34 14 7 14 Z " fill="#0E1325" transform="translate(175,33)"/>
<path d="M0 0 C2.31 0 4.62 0 7 0 C7.33 7.92 7.66 15.84 8 24 C3.38 24 -1.24 24 -6 24 C-10.8298573 16.45334797 -10.8298573 16.45334797 -10 11 C-8.5625 8.25 -8.5625 8.25 -7 6 C-6.67 5.34 -6.34 4.68 -6 4 C-4.02 4 -2.04 4 0 4 C0 2.68 0 1.36 0 0 Z M-5 5 C-5 5.33 -5 5.66 -5 6 C-3.35 6 -1.7 6 0 6 C0 5.67 0 5.34 0 5 C-1.65 5 -3.3 5 -5 5 Z M-4 11 C-4.6814823 12.89179203 -4.6814823 12.89179203 -5 15 C-4.34 15.66 -3.68 16.32 -3 17 C-2.01 16.67 -1.02 16.34 0 16 C0 14.68 0 13.36 0 12 C-1.32 11.67 -2.64 11.34 -4 11 Z M1 12 C1 13.65 1 15.3 1 17 C1.33 17 1.66 17 2 17 C2 15.35 2 13.7 2 12 C1.67 12 1.34 12 1 12 Z " fill="#0D1425" transform="translate(319,40)"/>
<path d="M0 0 C1.65 0 3.3 0 5 0 C5 6.6 5 13.2 5 20 C4.67 20 4.34 20 4 20 C3.67 17.69 3.34 15.38 3 13 C2.566875 13.433125 2.13375 13.86625 1.6875 14.3125 C1.130625 14.869375 0.57375 15.42625 0 16 C-0.474375 16.515625 -0.94875 17.03125 -1.4375 17.5625 C-4.34455188 20.23698773 -6.40414609 20.94482834 -10.375 21.3125 C-14.54082406 20.95337724 -16.59384179 20.44354828 -20 18 C-23.90981971 12.84521138 -25.68493433 8.43838269 -25 2 C-22.525 2.495 -22.525 2.495 -20 3 C-19.9175 3.78375 -19.835 4.5675 -19.75 5.375 C-19.29004732 8.11631339 -19.29004732 8.11631339 -17.125 9.125 C-16.073125 9.558125 -16.073125 9.558125 -15 10 C-13.25 11.625 -13.25 11.625 -12 13 C-11.01 12.67 -10.02 12.34 -9 12 C-6 11 -6 11 -4 11 C-3.33125616 9.35500958 -2.66505926 7.70898352 -2 6.0625 C-1.62875 5.14597656 -1.2575 4.22945312 -0.875 3.28515625 C0.059598 1.25217842 0.059598 1.25217842 0 0 Z M3 9 C4 11 4 11 4 11 Z M-13 19 C-13 19.33 -13 19.66 -13 20 C-11.35 20 -9.7 20 -8 20 C-8 19.67 -8 19.34 -8 19 C-9.65 19 -11.3 19 -13 19 Z " fill="#0E1325" transform="translate(147,42)"/>
<path d="M0 0 C3.36995801 0.50117324 6.66763337 1.28290845 10 2 C10 8.6 10 15.2 10 22 C9.67 22 9.34 22 9 22 C9 19.36 9 16.72 9 14 C7.35 14 5.7 14 4 14 C3.67 12.02 3.34 10.04 3 8 C-0.05906926 10.51066469 -0.75191278 12.90059933 -1.6875 16.6875 C-1.93886719 17.68136719 -2.19023437 18.67523438 -2.44921875 19.69921875 C-2.63097656 20.45847656 -2.81273437 21.21773437 -3 22 C-5.31 22 -7.62 22 -10 22 C-10 15.07 -10 8.14 -10 1 C-8.02 1 -6.04 1 -4 1 C-3.67 2.98 -3.34 4.96 -3 7 C-2.690625 6.030625 -2.38125 5.06125 -2.0625 4.0625 C-1 1 -1 1 0 0 Z " fill="#101523" transform="translate(240,40)"/>
<path d="M0 0 C1.59138085 4.17737474 2.21278058 7.53160785 2 12 C0.02 12 -1.96 12 -4 12 C-4.66 10.68 -5.32 9.36 -6 8 C-6.64910154 9.58199631 -7.29414694 11.16565724 -7.9375 12.75 C-8.29714844 13.63171875 -8.65679687 14.5134375 -9.02734375 15.421875 C-9.85356576 17.61186104 -10.49369943 19.71898271 -11 22 C-12.98 22 -14.96 22 -17 22 C-17 15.07 -17 8.14 -17 1 C-15.02 1 -13.04 1 -11 1 C-10.67 2.32 -10.34 3.64 -10 5 C-9.4225 4.360625 -8.845 3.72125 -8.25 3.0625 C-5.48671441 0.52948821 -3.67030403 0 0 0 Z " fill="#101723" transform="translate(170,40)"/>
<path d="M0 0 C6.0546875 -0.1953125 6.0546875 -0.1953125 8 0 C11.06423545 3.06423545 12.83025285 5.64202281 13.375 10 C12.95203128 13.38374978 11.92890784 15.22237271 10 18 C9.67 18.66 9.34 19.32 9 20 C1.25 19.125 1.25 19.125 -1 18 C-3.78151632 14.2556511 -4.58020138 11.64161104 -4 7 C-2.5625 4.25 -2.5625 4.25 -1 2 C-0.67 1.34 -0.34 0.68 0 0 Z M1 1 C1 1.33 1 1.66 1 2 C3.31 2 5.62 2 8 2 C8 1.67 8 1.34 8 1 C5.69 1 3.38 1 1 1 Z M4 8 C3.67 9.32 3.34 10.64 3 12 C3.99 12 4.98 12 6 12 C5.67 10.68 5.34 9.36 5 8 C4.67 8 4.34 8 4 8 Z M7 8 C8 12 8 12 8 12 Z M1 9 C2 12 2 12 2 12 Z " fill="#101321" transform="translate(340,44)"/>
<path d="M0 0 C4.95 0 9.9 0 15 0 C15.33 5.28 15.66 10.56 16 16 C14.4325 16.144375 12.865 16.28875 11.25 16.4375 C8.06792001 16.73058631 5.08084955 17.14340865 2 18 C-1.41306555 12.67884268 -0.11199598 6.04778317 0 0 Z " fill="#0E1423" transform="translate(293,46)"/>
<path d="M0 0 C1.65 0.33 3.3 0.66 5 1 C6.02245821 4.31868591 6.04443871 7.18283589 5.87890625 10.640625 C5.83056641 11.71054687 5.78222656 12.78046875 5.73242188 13.8828125 C5.67634766 14.99398437 5.62027344 16.10515625 5.5625 17.25 C5.51029297 18.37664063 5.45808594 19.50328125 5.40429688 20.6640625 C5.27477014 23.44299972 5.13980947 26.22156424 5 29 C3.02 29 1.04 29 -1 29 C-0.99476318 28.31897217 -0.98952637 27.63794434 -0.98413086 26.9362793 C-0.96335542 23.85336223 -0.95033802 20.7704599 -0.9375 17.6875 C-0.92912109 16.61564453 -0.92074219 15.54378906 -0.91210938 14.43945312 C-0.90888672 13.41142578 -0.90566406 12.38339844 -0.90234375 11.32421875 C-0.89710693 10.37635498 -0.89187012 9.42849121 -0.88647461 8.4519043 C-0.89501146 5.86161319 -0.89501146 5.86161319 -2 3 C-1.34 2.01 -0.68 1.02 0 0 Z M0 7 C4 8 4 8 4 8 Z " fill="#111723" transform="translate(252,33)"/>
<path d="M0 0 C1.65 0 3.3 0 5 0 C5 5.28 5 10.56 5 16 C3.35 16 1.7 16 0 16 C0 10.72 0 5.44 0 0 Z " fill="#0F1826" transform="translate(329,46)"/>
<path d="M0 0 C2.64 0 5.28 0 8 0 C7.01 0.66 6.02 1.32 5 2 C5.350625 2.9075 5.70125 3.815 6.0625 4.75 C6.96468779 7.87758436 7.13381507 9.05208081 6 12 C5.34 11.01 4.68 10.02 4 9 C3.01 10.485 3.01 10.485 2 12 C2.52268466 9.23723823 3.10869587 6.6739124 4 4 C2.35 4 0.7 4 -1 4 C-0.67 2.68 -0.34 1.36 0 0 Z " fill="#090A22" transform="translate(340,44)"/>
<path d="M0 0 C1.32 0.33 2.64 0.66 4 1 C4 2.98 4 4.96 4 7 C2.35 7.66 0.7 8.32 -1 9 C-1.80967438 6.08517222 -2.21845993 4.53886783 -1.0625 1.6875 C-0.711875 1.130625 -0.36125 0.57375 0 0 Z " fill="#0F1224" transform="translate(139,40)"/>
<path d="M0 0 C0.99 0.33 1.98 0.66 3 1 C4.1875 3.5625 4.1875 3.5625 5 6 C4.34 6.66 3.68 7.32 3 8 C0.875 7.625 0.875 7.625 -1 7 C-1 3 -1 3 0 0 Z " fill="#0D111D" transform="translate(131,40)"/>
<path d="M0 0 C0.66 0.33 1.32 0.66 2 1 C2 1.66 2 2.32 2 3 C3.45736087 3.19491452 4.91594593 3.38069358 6.375 3.5625 C7.59316406 3.71912109 7.59316406 3.71912109 8.8359375 3.87890625 C11.04899186 4.18237328 11.04899186 4.18237328 13 3 C13.66 3.66 14.32 4.32 15 5 C11.92805092 6.53597454 9.39755707 6.2265038 6 6 C2.5625 4.5 2.5625 4.5 0 3 C0 2.01 0 1.02 0 0 Z " fill="#03060B" transform="translate(127,57)"/>
<path d="M0 0 C1.65 0 3.3 0 5 0 C5 1.65 5 3.3 5 5 C3.35 5 1.7 5 0 5 C0 3.35 0 1.7 0 0 Z " fill="#121727" transform="translate(329,40)"/>
<path d="M0 0 C2.475 0.99 2.475 0.99 5 2 C5.33 1.34 5.66 0.68 6 0 C6.99 0.99 7.98 1.98 9 3 C8.67 3.66 8.34 4.32 8 5 C6.35 5 4.7 5 3 5 C3 4.34 3 3.68 3 3 C2.01 3 1.02 3 0 3 C0 2.01 0 1.02 0 0 Z " fill="#030719" transform="translate(265,52)"/>
<path d="M0 0 C0.33 0 0.66 0 1 0 C1 6.6 1 13.2 1 20 C0.67 20 0.34 20 0 20 C0 13.4 0 6.8 0 0 Z " fill="#030236" transform="translate(258,42)"/>
<path d="M0 0 C0.598125 0.33 1.19625 0.66 1.8125 1 C4.05386471 2.20787988 4.05386471 2.20787988 7 2 C6.67 3.32 6.34 4.64 6 6 C5.01 5.34 4.02 4.68 3 4 C1.34450469 3.61500109 -0.3222433 3.27206865 -2 3 C-1.34 2.01 -0.68 1.02 0 0 Z " fill="#020716" transform="translate(273,45)"/>
<path d="M0 0 C0.33 0 0.66 0 1 0 C1 5.94 1 11.88 1 18 C0.67 18 0.34 18 0 18 C0 12.06 0 6.12 0 0 Z " fill="#091725" transform="translate(327,40)"/>
<path d="M0 0 C0.66 0 1.32 0 2 0 C2 1.32 2 2.64 2 4 C-0.31 4.33 -2.62 4.66 -5 5 C-3.625 3.5 -3.625 3.5 -2 2 C-1.34 2 -0.68 2 0 2 C0 1.34 0 0.68 0 0 Z " fill="#080D20" transform="translate(307,58)"/>
<path d="M0 0 C2.125 0.9375 2.125 0.9375 4 2 C4 2.66 4 3.32 4 4 C2.02 4 0.04 4 -2 4 C-2 3.01 -2 2.02 -2 1 C-1.34 0.67 -0.68 0.34 0 0 Z " fill="#101637" transform="translate(168,48)"/>
<path d="M0 0 C0.33 0 0.66 0 1 0 C1.22151549 1.79008467 1.42682213 3.58218162 1.625 5.375 C1.74101563 6.37273438 1.85703125 7.37046875 1.9765625 8.3984375 C1.98429687 9.25695313 1.99203125 10.11546875 2 11 C1.34 11.66 0.68 12.32 0 13 C0 8.71 0 4.42 0 0 Z " fill="#00030E" transform="translate(64,42)"/>
<path d="M0 0 C0.33 0 0.66 0 1 0 C1 4.29 1 8.58 1 13 C0.67 13 0.34 13 0 13 C0 8.71 0 4.42 0 0 Z " fill="#02051A" transform="translate(188,49)"/>
<path d="M0 0 C0.33 0 0.66 0 1 0 C1.33 2.97 1.66 5.94 2 9 C1.01 9.495 1.01 9.495 0 10 C0 6.7 0 3.4 0 0 Z " fill="#02050C" transform="translate(197,34)"/>
<path d="M0 0 C0.33 0 0.66 0 1 0 C1 2.64 1 5.28 1 8 C-1 5 -1 5 -0.625 2.3125 C-0.41875 1.549375 -0.2125 0.78625 0 0 Z " fill="#010611" transform="translate(55,42)"/>
<path d="M0 0 C0.66 0.66 1.32 1.32 2 2 C1.34 3.32 0.68 4.64 0 6 C-1.24546405 3.50907189 -0.7767578 2.58919267 0 0 Z " fill="#050A18" transform="translate(144,43)"/>
<path d="M0 0 C2.31 0 4.62 0 7 0 C7 0.33 7 0.66 7 1 C4.69 1 2.38 1 0 1 C0 0.67 0 0.34 0 0 Z " fill="#000214" transform="translate(86,63)"/>
<path d="M0 0 C0.33 1.32 0.66 2.64 1 4 C0.34 4 -0.32 4 -1 4 C-0.67 2.68 -0.34 1.36 0 0 Z " fill="#00070B" transform="translate(242,48)"/>
<path d="M0 0 C2.31 0 4.62 0 7 0 C7 0.33 7 0.66 7 1 C4.69 1 2.38 1 0 1 C0 0.67 0 0.34 0 0 Z " fill="#000105" transform="translate(215,39)"/>
<path d="M0 0 C0.33 0 0.66 0 1 0 C1 2.31 1 4.62 1 7 C0.67 7 0.34 7 0 7 C0 4.69 0 2.38 0 0 Z " fill="#000006" transform="translate(30,37)"/>
<path d="M0 0 C1.98 0 3.96 0 6 0 C6 0.33 6 0.66 6 1 C4.02 1 2.04 1 0 1 C0 0.67 0 0.34 0 0 Z " fill="#000000" transform="translate(251,63)"/>
<path d="M0 0 C1.98 0 3.96 0 6 0 C6 0.33 6 0.66 6 1 C4.02 1 2.04 1 0 1 C0 0.67 0 0.34 0 0 Z " fill="#010405" transform="translate(202,63)"/>
<path d="M0 0 C1.98 0 3.96 0 6 0 C6 0.33 6 0.66 6 1 C4.02 1 2.04 1 0 1 C0 0.67 0 0.34 0 0 Z " fill="#000503" transform="translate(153,63)"/>
<path d="M0 0 C0.99 1.485 0.99 1.485 2 3 C1.34 3.66 0.68 4.32 0 5 C0 3.35 0 1.7 0 0 Z " fill="#0A1338" transform="translate(335,57)"/>
<path d="M0 0 C0.33 0 0.66 0 1 0 C1 1.98 1 3.96 1 6 C0.67 6 0.34 6 0 6 C0 4.02 0 2.04 0 0 Z " fill="#000023" transform="translate(354,51)"/>
<path d="M0 0 C1.98 0 3.96 0 6 0 C6 0.33 6 0.66 6 1 C4.02 1 2.04 1 0 1 C0 0.67 0 0.34 0 0 Z " fill="#080A27" transform="translate(166,53)"/>
<path d="M0 0 C0.33 1.32 0.66 2.64 1 4 C0.34 4 -0.32 4 -1 4 C-0.67 2.68 -0.34 1.36 0 0 Z " fill="#080D29" transform="translate(164,48)"/>
<path d="M0 0 C0.99 1.485 0.99 1.485 2 3 C1.34 3.66 0.68 4.32 0 5 C0 3.35 0 1.7 0 0 Z " fill="#0A0B2F" transform="translate(335,46)"/>
<path d="M0 0 C1.98 0 3.96 0 6 0 C6 0.33 6 0.66 6 1 C4.02 1 2.04 1 0 1 C0 0.67 0 0.34 0 0 Z " fill="#010125" transform="translate(175,31)"/>
<path d="M0 0 C1.65 0 3.3 0 5 0 C5 0.33 5 0.66 5 1 C3.35 1 1.7 1 0 1 C0 0.67 0 0.34 0 0 Z " fill="#010102" transform="translate(100,71)"/>
<path d="M0 0 C1.65 0 3.3 0 5 0 C5 0.33 5 0.66 5 1 C3.35 1 1.7 1 0 1 C0 0.67 0 0.34 0 0 Z " fill="#010628" transform="translate(329,63)"/>
<path d="M0 0 C1.65 0 3.3 0 5 0 C5 0.33 5 0.66 5 1 C3.35 1 1.7 1 0 1 C0 0.67 0 0.34 0 0 Z " fill="#010102" transform="translate(231,63)"/>
<path d="M0 0 C1.65 0 3.3 0 5 0 C5 0.33 5 0.66 5 1 C3.35 1 1.7 1 0 1 C0 0.67 0 0.34 0 0 Z " fill="#010506" transform="translate(190,63)"/>
<path d="M0 0 C1.65 0 3.3 0 5 0 C5 0.33 5 0.66 5 1 C3.35 1 1.7 1 0 1 C0 0.67 0 0.34 0 0 Z " fill="#040218" transform="translate(60,63)"/>
<path d="M0 0 C0.33 1.32 0.66 2.64 1 4 C0.34 3.34 -0.32 2.68 -1 2 C-0.67 1.34 -0.34 0.68 0 0 Z " fill="#010909" transform="translate(228,57)"/>
<path d="M0 0 C0.33 0 0.66 0 1 0 C1 1.65 1 3.3 1 5 C0.67 5 0.34 5 0 5 C0 3.35 0 1.7 0 0 Z " fill="#00010F" transform="translate(113,49)"/>
<path d="M0 0 C0.33 0 0.66 0 1 0 C1 1.65 1 3.3 1 5 C0.67 5 0.34 5 0 5 C0 3.35 0 1.7 0 0 Z " fill="#01061F" transform="translate(221,49)"/>
<path d="M0 0 C0.33 0 0.66 0 1 0 C1 1.65 1 3.3 1 5 C0.67 5 0.34 5 0 5 C0 3.35 0 1.7 0 0 Z " fill="#060D18" transform="translate(215,49)"/>
<path d="M0 0 C0.33 0 0.66 0 1 0 C1 1.65 1 3.3 1 5 C0.67 5 0.34 5 0 5 C0 3.35 0 1.7 0 0 Z " fill="#070A0F" transform="translate(262,45)"/>
<path d="M0 0 C1.65 0 3.3 0 5 0 C5 0.33 5 0.66 5 1 C3.35 1 1.7 1 0 1 C0 0.67 0 0.34 0 0 Z " fill="#06042D" transform="translate(303,44)"/>
<path d="M0 0 C1.65 0 3.3 0 5 0 C5 0.33 5 0.66 5 1 C3.35 1 1.7 1 0 1 C0 0.67 0 0.34 0 0 Z " fill="#030319" transform="translate(293,44)"/>
<path d="M0 0 C0.33 1.32 0.66 2.64 1 4 C0.34 3.34 -0.32 2.68 -1 2 C-0.67 1.34 -0.34 0.68 0 0 Z " fill="#020413" transform="translate(228,42)"/>
<path d="M0 0 C0.33 0 0.66 0 1 0 C1 1.65 1 3.3 1 5 C0.67 5 0.34 5 0 5 C0 3.35 0 1.7 0 0 Z " fill="#020323" transform="translate(335,40)"/>
<path d="M0 0 C1.65 0 3.3 0 5 0 C5 0.33 5 0.66 5 1 C3.35 1 1.7 1 0 1 C0 0.67 0 0.34 0 0 Z " fill="#000104" transform="translate(283,39)"/>
<path d="M0 0 C1.65 0 3.3 0 5 0 C5 0.33 5 0.66 5 1 C3.35 1 1.7 1 0 1 C0 0.67 0 0.34 0 0 Z " fill="#000105" transform="translate(231,39)"/>
<path d="M0 0 C0.66 1.32 1.32 2.64 2 4 C1.34 4 0.68 4 0 4 C0 2.68 0 1.36 0 0 Z " fill="#010416" transform="translate(173,36)"/>
<path d="M0 0 C1.65 0 3.3 0 5 0 C5 0.33 5 0.66 5 1 C3.35 1 1.7 1 0 1 C0 0.67 0 0.34 0 0 Z " fill="#000105" transform="translate(153,39)"/>
<path d="M0 0 C1.65 0 3.3 0 5 0 C5 0.33 5 0.66 5 1 C3.35 1 1.7 1 0 1 C0 0.67 0 0.34 0 0 Z " fill="#000203" transform="translate(100,39)"/>
<path d="M0 0 C1.65 0 3.3 0 5 0 C5 0.33 5 0.66 5 1 C3.35 1 1.7 1 0 1 C0 0.67 0 0.34 0 0 Z " fill="#000007" transform="translate(88,39)"/>
<path d="M0 0 C1.65 0 3.3 0 5 0 C5 0.33 5 0.66 5 1 C3.35 1 1.7 1 0 1 C0 0.67 0 0.34 0 0 Z " fill="#010205" transform="translate(57,39)"/>
<path d="M0 0 C1.65 0 3.3 0 5 0 C5 0.33 5 0.66 5 1 C3.35 1 1.7 1 0 1 C0 0.67 0 0.34 0 0 Z " fill="#030131" transform="translate(329,38)"/>
<path d="M0 0 C1.65 0 3.3 0 5 0 C5 0.33 5 0.66 5 1 C3.35 1 1.7 1 0 1 C0 0.67 0 0.34 0 0 Z " fill="#000221" transform="translate(321,38)"/>
<path d="M0 0 C1.65 0 3.3 0 5 0 C5 0.33 5 0.66 5 1 C3.35 1 1.7 1 0 1 C0 0.67 0 0.34 0 0 Z " fill="#000002" transform="translate(270,38)"/>
<path d="M0 0 C0.33 0 0.66 0 1 0 C1 1.65 1 3.3 1 5 C0.67 5 0.34 5 0 5 C0 3.35 0 1.7 0 0 Z " fill="#000309" transform="translate(188,34)"/>
<path d="M0 0 C1.65 0 3.3 0 5 0 C5 0.33 5 0.66 5 1 C3.35 1 1.7 1 0 1 C0 0.67 0 0.34 0 0 Z " fill="#070236" transform="translate(190,31)"/>
<path d="M0 0 C1.65 0 3.3 0 5 0 C5 0.33 5 0.66 5 1 C3.35 1 1.7 1 0 1 C0 0.67 0 0.34 0 0 Z " fill="#000113" transform="translate(37,31)"/>
<path d="M0 0 C4 1 4 1 4 1 Z " fill="#01020C" transform="translate(78,71)"/>
<path d="M0 0 C4 1 4 1 4 1 Z " fill="#03021C" transform="translate(305,63)"/>
<path d="M0 0 C4 1 4 1 4 1 Z " fill="#00000D" transform="translate(288,63)"/>
<path d="M0 0 C0.33 0.99 0.66 1.98 1 3 C0.34 2.67 -0.32 2.34 -1 2 C-0.67 1.34 -0.34 0.68 0 0 Z " fill="#070B16" transform="translate(281,58)"/>
<path d="M0 0 C1 4 1 4 1 4 Z " fill="#07081F" transform="translate(238,57)"/>
<path d="M0 0 C0 3 0 3 0 3 Z " fill="#090B1C" transform="translate(68,59)"/>
<path d="M0 0 C4 1 4 1 4 1 Z " fill="#02071F" transform="translate(39,50)"/>
<path d="M0 0 C1 4 1 4 1 4 Z " fill="#060B2A" transform="translate(128,46)"/>
<path d="M0 0 C0.66 0.66 1.32 1.32 2 2 C1.01 2.495 1.01 2.495 0 3 C0 2.01 0 1.02 0 0 Z " fill="#050C12" transform="translate(309,46)"/>
<path d="M0 0 C1 4 1 4 1 4 Z " fill="#000209" transform="translate(67,43)"/>
<path d="M0 0 C4 1 4 1 4 1 Z " fill="#030204" transform="translate(122,42)"/>
<path d="M0 0 C4 1 4 1 4 1 Z " fill="#000006" transform="translate(242,39)"/>
<path d="M0 0 C4 1 4 1 4 1 Z " fill="#000008" transform="translate(201,39)"/>
<path d="M0 0 C4 1 4 1 4 1 Z " fill="#000206" transform="translate(164,39)"/>
<path d="M0 0 C4 1 4 1 4 1 Z " fill="#000104" transform="translate(78,39)"/>
<path d="M0 0 C4 1 4 1 4 1 Z " fill="#010206" transform="translate(71,39)"/>
<path d="M0 0 C4 1 4 1 4 1 Z " fill="#010020" transform="translate(252,31)"/>
<path d="M0 0 C3 1 3 1 3 1 Z " fill="#000006" transform="translate(343,64)"/>
<path d="M0 0 C3 1 3 1 3 1 Z " fill="#000113" transform="translate(299,63)"/>
<path d="M0 0 C0.66 0.66 1.32 1.32 2 2 C1.34 2 0.68 2 0 2 C0 1.34 0 0.68 0 0 Z " fill="#0A0F27" transform="translate(310,60)"/>
<path d="" fill="#020034" transform="translate(0,0)"/>
<path d="" fill="#020617" transform="translate(0,0)"/>
<path d="" fill="#060D16" transform="translate(0,0)"/>
<path d="M0 0 C3 1 3 1 3 1 Z " fill="#01050B" transform="translate(135,54)"/>
<path d="" fill="#060727" transform="translate(0,0)"/>
<path d="M0 0 C0.33 0.66 0.66 1.32 1 2 C0.34 1.67 -0.32 1.34 -1 1 C-0.67 0.67 -0.34 0.34 0 0 Z " fill="#040411" transform="translate(142,51)"/>
<path d="M0 0 C3 1 3 1 3 1 Z " fill="#040807" transform="translate(139,49)"/>
<path d="M0 0 C3 1 3 1 3 1 Z " fill="#000909" transform="translate(131,49)"/>
<path d="" fill="#040612" transform="translate(0,0)"/>
<path d="M0 0 C0.99 0.495 0.99 0.495 2 1 C1.01 1.495 1.01 1.495 0 2 C0 1.34 0 0.68 0 0 Z " fill="#040812" transform="translate(160,42)"/>
<path d="M0 0 C3 1 3 1 3 1 Z " fill="#05091C" transform="translate(43,42)"/>
<path d="M0 0 C3 1 3 1 3 1 Z " fill="#000006" transform="translate(275,39)"/>
<path d="" fill="#000201" transform="translate(0,0)"/>
<path d="M0 0 C0.66 0 1.32 0 2 0 C1.67 0.66 1.34 1.32 1 2 C0.67 1.34 0.34 0.68 0 0 Z " fill="#091214" transform="translate(52,34)"/>
<path d="M0 0 C2 1 2 1 2 1 Z " fill="#000004" transform="translate(316,64)"/>
<path d="M0 0 C2 1 2 1 2 1 Z " fill="#000005" transform="translate(297,64)"/>
<path d="M0 0 C2 1 2 1 2 1 Z " fill="#000100" transform="translate(286,64)"/>
<path d="M0 0 C2 1 2 1 2 1 Z " fill="#070B13" transform="translate(341,63)"/>
<path d="" fill="#000509" transform="translate(0,0)"/>
<path d="" fill="#01050D" transform="translate(0,0)"/>
<path d="" fill="#070908" transform="translate(0,0)"/>
<path d="" fill="#080D27" transform="translate(0,0)"/>
<path d="" fill="#000609" transform="translate(0,0)"/>
<path d="" fill="#060621" transform="translate(0,0)"/>
<path d="" fill="#00000A" transform="translate(0,0)"/>
<path d="" fill="#000602" transform="translate(0,0)"/>
<path d="" fill="#131725" transform="translate(0,0)"/>
<path d="" fill="#070B1E" transform="translate(0,0)"/>
<path d="" fill="#000305" transform="translate(0,0)"/>
<path d="" fill="#060516" transform="translate(0,0)"/>
<path d="" fill="#05080F" transform="translate(0,0)"/>
<path d="" fill="#000417" transform="translate(0,0)"/>
<path d="" fill="#000004" transform="translate(0,0)"/>
<path d="" fill="#050914" transform="translate(0,0)"/>
<path d="" fill="#00050F" transform="translate(0,0)"/>
<path d="M0 0 C2 1 2 1 2 1 Z " fill="#000006" transform="translate(213,40)"/>
<path d="" fill="#030909" transform="translate(0,0)"/>
<path d="" fill="#000000" transform="translate(0,0)"/>
<path d="" fill="#020309" transform="translate(0,0)"/>
<path d="M0 0 C2 1 2 1 2 1 Z " fill="#000306" transform="translate(42,30)"/>
<path d="" fill="#000003" transform="translate(0,0)"/>
<path d="" fill="#000000" transform="translate(0,0)"/>
<path d="" fill="#080C14" transform="translate(0,0)"/>
<path d="" fill="#0B0C13" transform="translate(0,0)"/>
<path d="" fill="#00010B" transform="translate(0,0)"/>
<path d="" fill="#00080C" transform="translate(0,0)"/>
<path d="" fill="#091012" transform="translate(0,0)"/>
<path d="" fill="#00040A" transform="translate(0,0)"/>
<path d="" fill="#010605" transform="translate(0,0)"/>
<path d="" fill="#000003" transform="translate(0,0)"/>
<path d="" fill="#080F0F" transform="translate(0,0)"/>
<path d="" fill="#07080E" transform="translate(0,0)"/>
<path d="" fill="#00020B" transform="translate(0,0)"/>
<path d="" fill="#07080C" transform="translate(0,0)"/>
<path d="" fill="#000009" transform="translate(0,0)"/>
<path d="" fill="#0C0E14" transform="translate(0,0)"/>
<path d="" fill="#070C0A" transform="translate(0,0)"/>
<path d="" fill="#050D16" transform="translate(0,0)"/>
<path d="" fill="#0A0E0D" transform="translate(0,0)"/>
<path d="" fill="#080B16" transform="translate(0,0)"/>
<path d="" fill="#03060E" transform="translate(0,0)"/>
<path d="" fill="#0A0E1F" transform="translate(0,0)"/>
<path d="" fill="#04070F" transform="translate(0,0)"/>
<path d="" fill="#0F1616" transform="translate(0,0)"/>
<path d="" fill="#000408" transform="translate(0,0)"/>
<path d="" fill="#070906" transform="translate(0,0)"/>
<path d="" fill="#0A0E21" transform="translate(0,0)"/>
<path d="" fill="#050714" transform="translate(0,0)"/>
<path d="" fill="#000707" transform="translate(0,0)"/>
<path d="" fill="#00080C" transform="translate(0,0)"/>
<path d="" fill="#000011" transform="translate(0,0)"/>
<path d="" fill="#020713" transform="translate(0,0)"/>
<path d="" fill="#03060E" transform="translate(0,0)"/>
<path d="" fill="#000609" transform="translate(0,0)"/>
<path d="" fill="#00001B" transform="translate(0,0)"/>
<path d="" fill="#070C0C" transform="translate(0,0)"/>
<path d="" fill="#03090E" transform="translate(0,0)"/>
<path d="" fill="#090B0F" transform="translate(0,0)"/>
<path d="" fill="#000415" transform="translate(0,0)"/>
<path d="" fill="#13181F" transform="translate(0,0)"/>
<path d="" fill="#000419" transform="translate(0,0)"/>
<path d="" fill="#00060F" transform="translate(0,0)"/>
<path d="" fill="#0C112D" transform="translate(0,0)"/>
<path d="" fill="#000109" transform="translate(0,0)"/>
<path d="" fill="#080E1C" transform="translate(0,0)"/>
<path d="" fill="#000010" transform="translate(0,0)"/>
<path d="" fill="#00000A" transform="translate(0,0)"/>
<path d="" fill="#00000D" transform="translate(0,0)"/>
<path d="" fill="#000109" transform="translate(0,0)"/>
<path d="" fill="#080B1A" transform="translate(0,0)"/>
<path d="" fill="#01070C" transform="translate(0,0)"/>
<path d="" fill="#0A0C10" transform="translate(0,0)"/>
<path d="" fill="#040318" transform="translate(0,0)"/>
<path d="" fill="#03060C" transform="translate(0,0)"/>
<path d="" fill="#050F0E" transform="translate(0,0)"/>
<path d="" fill="#00090C" transform="translate(0,0)"/>
<path d="" fill="#000010" transform="translate(0,0)"/>
<path d="" fill="#0C1015" transform="translate(0,0)"/>
<path d="" fill="#111921" transform="translate(0,0)"/>
<path d="" fill="#040615" transform="translate(0,0)"/>
<path d="" fill="#0B0E18" transform="translate(0,0)"/>
<path d="" fill="#030B0F" transform="translate(0,0)"/>
<path d="" fill="#070B1A" transform="translate(0,0)"/>
<path d="" fill="#0C1118" transform="translate(0,0)"/>
<path d="" fill="#0C0D2F" transform="translate(0,0)"/>
<path d="" fill="#020909" transform="translate(0,0)"/>
<path d="" fill="#000014" transform="translate(0,0)"/>
<path d="" fill="#000002" transform="translate(0,0)"/>
<path d="" fill="#00000C" transform="translate(0,0)"/>
<path d="" fill="#000107" transform="translate(0,0)"/>
<path d="" fill="#070C16" transform="translate(0,0)"/>
<path d="" fill="#000009" transform="translate(0,0)"/>
<path d="" fill="#000018" transform="translate(0,0)"/>
<path d="" fill="#010413" transform="translate(0,0)"/>
<path d="" fill="#000008" transform="translate(0,0)"/>
<path d="" fill="#00000A" transform="translate(0,0)"/>
<path d="" fill="#010715" transform="translate(0,0)"/>
<path d="" fill="#050F0E" transform="translate(0,0)"/>
<path d="" fill="#000007" transform="translate(0,0)"/>
<path d="" fill="#000408" transform="translate(0,0)"/>
<path d="" fill="#00030C" transform="translate(0,0)"/>
<path d="" fill="#01070E" transform="translate(0,0)"/>
<path d="" fill="#070C18" transform="translate(0,0)"/>
<path d="" fill="#020916" transform="translate(0,0)"/>
<path d="" fill="#00020B" transform="translate(0,0)"/>
<path d="" fill="#000010" transform="translate(0,0)"/>
<path d="" fill="#02010A" transform="translate(0,0)"/>
<path d="" fill="#00000A" transform="translate(0,0)"/>
<path d="" fill="#010614" transform="translate(0,0)"/>
<path d="" fill="#01070E" transform="translate(0,0)"/>
<path d="" fill="#03060E" transform="translate(0,0)"/>
<path d="" fill="#111720" transform="translate(0,0)"/>
<path d="" fill="#0C141B" transform="translate(0,0)"/>
<path d="" fill="#000209" transform="translate(0,0)"/>
<path d="" fill="#000009" transform="translate(0,0)"/>
<path d="" fill="#0A1015" transform="translate(0,0)"/>
<path d="" fill="#050B0F" transform="translate(0,0)"/>
<path d="" fill="#060B0B" transform="translate(0,0)"/>
<path d="" fill="#000006" transform="translate(0,0)"/>
<path d="" fill="#000004" transform="translate(0,0)"/>
<path d="" fill="#020403" transform="translate(0,0)"/>
<path d="" fill="#000105" transform="translate(0,0)"/>
<path d="" fill="#000005" transform="translate(0,0)"/>
<path d="" fill="#040706" transform="translate(0,0)"/>
<path d="" fill="#000207" transform="translate(0,0)"/>
<path d="" fill="#05070D" transform="translate(0,0)"/>
<path d="" fill="#00010B" transform="translate(0,0)"/>
</svg>
